<?xml version="1.0" encoding="UTF-8" standalone="no"?>
<!DOCTYPE svg PUBLIC "-//W3C//DTD SVG 1.1//EN"
 "http://www.w3.org/Graphics/SVG/1.1/DTD/svg11.dtd">
<!-- Generated by graphviz version 2.40.1 (20161225.0304)
 -->
<!-- Title: G Pages: 1 -->
<svg width="2526pt" height="1700pt"
 viewBox="0.00 0.00 2525.58 1700.00" xmlns="http://www.w3.org/2000/svg" xmlns:xlink="http://www.w3.org/1999/xlink">
<g id="graph0" class="graph" transform="scale(1 1) rotate(0) translate(4 1696)">
<title>G</title>
<polygon fill="#ffffff" stroke="transparent" points="-4,4 -4,-1696 2521.5811,-1696 2521.5811,4 -4,4"/>
<!-- x90 -->
<g id="node1" class="node">
<title>x90</title>
<ellipse fill="none" stroke="#000000" cx="1673.3349" cy="-90" rx="44.393" ry="18"/>
<text text-anchor="middle" x="1673.3349" y="-86.3" font-family="Times,serif" font-size="14.00" fill="#000000">x90 (r13)</text>
</g>
<!-- out -->
<g id="node59" class="node">
<title>out</title>
<ellipse fill="none" stroke="#000000" cx="1601.3349" cy="-18" rx="27" ry="18"/>
<text text-anchor="middle" x="1601.3349" y="-14.3" font-family="Times,serif" font-size="14.00" fill="#000000">out</text>
</g>
<!-- x90&#45;&gt;out -->
<g id="edge13" class="edge">
<title>x90&#45;&gt;out</title>
<path fill="none" stroke="#000000" d="M1656.6356,-73.3008C1646.8746,-63.5397 1634.4257,-51.0909 1623.8119,-40.477"/>
<polygon fill="#000000" stroke="#000000" points="1626.0183,-37.7337 1616.4723,-33.1374 1621.0685,-42.6834 1626.0183,-37.7337"/>
</g>
<!-- x75 -->
<g id="node2" class="node">
<title>x75</title>
<ellipse fill="none" stroke="#000000" cx="1851.3349" cy="-810" rx="39.7935" ry="18"/>
<text text-anchor="middle" x="1851.3349" y="-806.3" font-family="Times,serif" font-size="14.00" fill="#000000">x75 (r8)</text>
</g>
<!-- x77_128 -->
<g id="node41" class="node">
<title>x77_128</title>
<ellipse fill="none" stroke="#000000" cx="1629.3349" cy="-738" rx="71.4873" ry="18"/>
<text text-anchor="middle" x="1629.3349" y="-734.3" font-family="Times,serif" font-size="14.00" fill="#000000">x77_128 (r9:r14)</text>
</g>
<!-- x75&#45;&gt;x77_128 -->
<g id="edge121" class="edge">
<title>x75&#45;&gt;x77_128</title>
<path fill="none" stroke="#000000" d="M1819.0542,-799.5306C1783.4647,-787.988 1725.6312,-769.2312 1683.1595,-755.4566"/>
<polygon fill="#000000" stroke="#000000" points="1684.124,-752.09 1673.532,-752.3342 1681.9644,-758.7486 1684.124,-752.09"/>
</g>
<!-- x58_128 -->
<g id="node3" class="node">
<title>x58_128</title>
<ellipse fill="none" stroke="#000000" cx="1023.3349" cy="-1386" rx="81.4863" ry="18"/>
<text text-anchor="middle" x="1023.3349" y="-1382.3" font-family="Times,serif" font-size="14.00" fill="#000000">x58_128 (RSP:r13)</text>
</g>
<!-- x60_128 -->
<g id="node9" class="node">
<title>x60_128</title>
<ellipse fill="none" stroke="#000000" cx="1569.3349" cy="-1314" rx="81.4863" ry="18"/>
<text text-anchor="middle" x="1569.3349" y="-1310.3" font-family="Times,serif" font-size="14.00" fill="#000000">x60_128 (RSP:r13)</text>
</g>
<!-- x58_128&#45;&gt;x60_128 -->
<g id="edge92" class="edge">
<title>x58_128&#45;&gt;x60_128</title>
<path fill="none" stroke="#000000" d="M1082.5977,-1373.6649C1093.4599,-1371.615 1104.7176,-1369.6294 1115.3349,-1368 1257.6713,-1346.1566 1294.4277,-1349.7296 1437.3349,-1332 1454.5073,-1329.8695 1472.9167,-1327.4469 1490.3732,-1325.0849"/>
<polygon fill="#000000" stroke="#000000" points="1491.0878,-1328.52 1500.5247,-1323.7038 1490.1442,-1321.5839 1491.0878,-1328.52"/>
</g>
<!-- x69 -->
<g id="node4" class="node">
<title>x69</title>
<ellipse fill="none" stroke="#000000" cx="1687.3349" cy="-1098" rx="50.0912" ry="18"/>
<text text-anchor="middle" x="1687.3349" y="-1094.3" font-family="Times,serif" font-size="14.00" fill="#000000">x69 (RBP)</text>
</g>
<!-- x71_128 -->
<g id="node47" class="node">
<title>x71_128</title>
<ellipse fill="none" stroke="#000000" cx="1679.3349" cy="-1026" rx="81.4863" ry="18"/>
<text text-anchor="middle" x="1679.3349" y="-1022.3" font-family="Times,serif" font-size="14.00" fill="#000000">x71_128 (RSP:r13)</text>
</g>
<!-- x69&#45;&gt;x71_128 -->
<g id="edge113" class="edge">
<title>x69&#45;&gt;x71_128</title>
<path fill="none" stroke="#000000" d="M1685.3161,-1079.8314C1684.4605,-1072.131 1683.4431,-1062.9743 1682.4923,-1054.4166"/>
<polygon fill="#000000" stroke="#000000" points="1685.9638,-1053.9656 1681.3808,-1044.4133 1679.0066,-1054.7386 1685.9638,-1053.9656"/>
</g>
<!-- x68_128 -->
<g id="node5" class="node">
<title>x68_128</title>
<ellipse fill="none" stroke="#000000" cx="1357.3349" cy="-1242" rx="71.4873" ry="18"/>
<text text-anchor="middle" x="1357.3349" y="-1238.3" font-family="Times,serif" font-size="14.00" fill="#000000">x68_128 (r9:r14)</text>
</g>
<!-- x68_128&#45;&gt;x77_128 -->
<g id="edge120" class="edge">
<title>x68_128&#45;&gt;x77_128</title>
<path fill="none" stroke="#000000" d="M1360.6501,-1223.8863C1365.3366,-1196.6615 1373.3349,-1143.5285 1373.3349,-1098 1373.3349,-1098 1373.3349,-1098 1373.3349,-882 1373.3349,-797.9384 1479.4875,-762.4272 1555.0809,-747.7962"/>
<polygon fill="#000000" stroke="#000000" points="1555.8691,-751.2098 1565.0657,-745.9492 1554.5959,-744.3266 1555.8691,-751.2098"/>
</g>
<!-- x44_128 -->
<g id="node6" class="node">
<title>x44_128</title>
<ellipse fill="none" stroke="#000000" cx="1192.3349" cy="-1242" rx="75.2868" ry="18"/>
<text text-anchor="middle" x="1192.3349" y="-1238.3" font-family="Times,serif" font-size="14.00" fill="#000000">x44_128 (r12:r15)</text>
</g>
<!-- x80_128 -->
<g id="node23" class="node">
<title>x80_128</title>
<ellipse fill="none" stroke="#000000" cx="1540.3349" cy="-594" rx="75.2868" ry="18"/>
<text text-anchor="middle" x="1540.3349" y="-590.3" font-family="Times,serif" font-size="14.00" fill="#000000">x80_128 (r12:r15)</text>
</g>
<!-- x44_128&#45;&gt;x80_128 -->
<g id="edge124" class="edge">
<title>x44_128&#45;&gt;x80_128</title>
<path fill="none" stroke="#000000" d="M1207.7408,-1224.2957C1228.6225,-1198.4168 1263.3349,-1147.8938 1263.3349,-1098 1263.3349,-1098 1263.3349,-1098 1263.3349,-738 1263.3349,-648.859 1377.6625,-614.8205 1459.4194,-601.8754"/>
<polygon fill="#000000" stroke="#000000" points="1460.3506,-605.2749 1469.7194,-600.3276 1459.3102,-598.3526 1460.3506,-605.2749"/>
</g>
<!-- x42_128 -->
<g id="node7" class="node">
<title>x42_128</title>
<ellipse fill="none" stroke="#000000" cx="1926.3349" cy="-1314" rx="75.2868" ry="18"/>
<text text-anchor="middle" x="1926.3349" y="-1310.3" font-family="Times,serif" font-size="14.00" fill="#000000">x42_128 (r12:r15)</text>
</g>
<!-- x42_128&#45;&gt;x44_128 -->
<g id="edge64" class="edge">
<title>x42_128&#45;&gt;x44_128</title>
<path fill="none" stroke="#000000" d="M1871.7722,-1301.494C1861.064,-1299.3848 1849.8821,-1297.4218 1839.3349,-1296 1591.2887,-1262.563 1525.3024,-1294.0153 1277.3349,-1260 1270.6076,-1259.0772 1263.618,-1257.9223 1256.6663,-1256.6456"/>
<polygon fill="#000000" stroke="#000000" points="1257.0241,-1253.1504 1246.5433,-1254.7006 1255.7033,-1260.0247 1257.0241,-1253.1504"/>
</g>
<!-- x40_128 -->
<g id="node8" class="node">
<title>x40_128</title>
<ellipse fill="none" stroke="#000000" cx="1926.3349" cy="-1386" rx="75.2868" ry="18"/>
<text text-anchor="middle" x="1926.3349" y="-1382.3" font-family="Times,serif" font-size="14.00" fill="#000000">x40_128 (r12:r15)</text>
</g>
<!-- x40_128&#45;&gt;x42_128 -->
<g id="edge60" class="edge">
<title>x40_128&#45;&gt;x42_128</title>
<path fill="none" stroke="#000000" d="M1926.3349,-1367.8314C1926.3349,-1360.131 1926.3349,-1350.9743 1926.3349,-1342.4166"/>
<polygon fill="#000000" stroke="#000000" points="1929.835,-1342.4132 1926.3349,-1332.4133 1922.835,-1342.4133 1929.835,-1342.4132"/>
</g>
<!-- x62_128 -->
<g id="node10" class="node">
<title>x62_128</title>
<ellipse fill="none" stroke="#000000" cx="1903.3349" cy="-1242" rx="81.4863" ry="18"/>
<text text-anchor="middle" x="1903.3349" y="-1238.3" font-family="Times,serif" font-size="14.00" fill="#000000">x62_128 (RSP:r13)</text>
</g>
<!-- x60_128&#45;&gt;x62_128 -->
<g id="edge96" class="edge">
<title>x60_128&#45;&gt;x62_128</title>
<path fill="none" stroke="#000000" d="M1627.8954,-1301.3762C1685.6702,-1288.9217 1773.9516,-1269.891 1834.9226,-1256.7475"/>
<polygon fill="#000000" stroke="#000000" points="1835.8037,-1260.1381 1844.8415,-1254.6093 1834.3285,-1253.2953 1835.8037,-1260.1381"/>
</g>
<!-- x62_128&#45;&gt;x71_128 -->
<g id="edge112" class="edge">
<title>x62_128&#45;&gt;x71_128</title>
<path fill="none" stroke="#000000" d="M1887.5,-1224.2877C1859.8999,-1193.7356 1800.7234,-1129.6337 1746.3349,-1080 1734.9685,-1069.6273 1721.9026,-1058.8599 1710.3446,-1049.6945"/>
<polygon fill="#000000" stroke="#000000" points="1712.2679,-1046.7546 1702.241,-1043.3323 1707.9452,-1052.2605 1712.2679,-1046.7546"/>
</g>
<!-- x64_128 -->
<g id="node11" class="node">
<title>x64_128</title>
<ellipse fill="none" stroke="#000000" cx="2175.3349" cy="-1314" rx="71.4873" ry="18"/>
<text text-anchor="middle" x="2175.3349" y="-1310.3" font-family="Times,serif" font-size="14.00" fill="#000000">x64_128 (r8:r10)</text>
</g>
<!-- x66_128 -->
<g id="node12" class="node">
<title>x66_128</title>
<ellipse fill="none" stroke="#000000" cx="2175.3349" cy="-1242" rx="71.4873" ry="18"/>
<text text-anchor="middle" x="2175.3349" y="-1238.3" font-family="Times,serif" font-size="14.00" fill="#000000">x66_128 (r8:r10)</text>
</g>
<!-- x64_128&#45;&gt;x66_128 -->
<g id="edge104" class="edge">
<title>x64_128&#45;&gt;x66_128</title>
<path fill="none" stroke="#000000" d="M2175.3349,-1295.8314C2175.3349,-1288.131 2175.3349,-1278.9743 2175.3349,-1270.4166"/>
<polygon fill="#000000" stroke="#000000" points="2178.835,-1270.4132 2175.3349,-1260.4133 2171.835,-1270.4133 2178.835,-1270.4132"/>
</g>
<!-- x74_128 -->
<g id="node49" class="node">
<title>x74_128</title>
<ellipse fill="none" stroke="#000000" cx="1886.3349" cy="-882" rx="71.4873" ry="18"/>
<text text-anchor="middle" x="1886.3349" y="-878.3" font-family="Times,serif" font-size="14.00" fill="#000000">x74_128 (r8:r10)</text>
</g>
<!-- x66_128&#45;&gt;x74_128 -->
<g id="edge116" class="edge">
<title>x66_128&#45;&gt;x74_128</title>
<path fill="none" stroke="#000000" d="M2107.4406,-1236.2872C2024.8558,-1225.1912 1896.3349,-1192.7088 1896.3349,-1098 1896.3349,-1098 1896.3349,-1098 1896.3349,-1026 1896.3349,-985.7793 1892.4044,-939.391 1889.4717,-910.3773"/>
<polygon fill="#000000" stroke="#000000" points="1892.9244,-909.7407 1888.4069,-900.1573 1885.9621,-910.4662 1892.9244,-909.7407"/>
</g>
<!-- x29_128 -->
<g id="node13" class="node">
<title>x29_128</title>
<ellipse fill="none" stroke="#000000" cx="1774.3349" cy="-1530" rx="71.4873" ry="18"/>
<text text-anchor="middle" x="1774.3349" y="-1526.3" font-family="Times,serif" font-size="14.00" fill="#000000">x29_128 (r9:r14)</text>
</g>
<!-- x31_128 -->
<g id="node35" class="node">
<title>x31_128</title>
<ellipse fill="none" stroke="#000000" cx="1553.3349" cy="-1458" rx="71.4873" ry="18"/>
<text text-anchor="middle" x="1553.3349" y="-1454.3" font-family="Times,serif" font-size="14.00" fill="#000000">x31_128 (r9:r14)</text>
</g>
<!-- x29_128&#45;&gt;x31_128 -->
<g id="edge38" class="edge">
<title>x29_128&#45;&gt;x31_128</title>
<path fill="none" stroke="#000000" d="M1730.4081,-1515.689C1694.9333,-1504.1316 1644.8637,-1487.8194 1607.0136,-1475.4881"/>
<polygon fill="#000000" stroke="#000000" points="1607.7708,-1472.0538 1597.1784,-1472.2839 1605.6024,-1478.7095 1607.7708,-1472.0538"/>
</g>
<!-- x28_128 -->
<g id="node14" class="node">
<title>x28_128</title>
<ellipse fill="none" stroke="#000000" cx="1195.3349" cy="-1386" rx="71.4873" ry="18"/>
<text text-anchor="middle" x="1195.3349" y="-1382.3" font-family="Times,serif" font-size="14.00" fill="#000000">x28_128 (r8:r10)</text>
</g>
<!-- x28_128&#45;&gt;x64_128 -->
<g id="edge100" class="edge">
<title>x28_128&#45;&gt;x64_128</title>
<path fill="none" stroke="#000000" d="M1246.5187,-1373.2502C1256.3609,-1371.1899 1266.6267,-1369.3071 1276.3349,-1368 1600.0283,-1324.417 1684.7349,-1357.7217 2010.3349,-1332 2039.8848,-1329.6656 2072.3284,-1326.3009 2100.5689,-1323.1108"/>
<polygon fill="#000000" stroke="#000000" points="2101.2318,-1326.558 2110.77,-1321.9457 2100.4373,-1319.6032 2101.2318,-1326.558"/>
</g>
<!-- x24_128 -->
<g id="node15" class="node">
<title>x24_128</title>
<ellipse fill="none" stroke="#000000" cx="123.3349" cy="-1530" rx="71.4873" ry="18"/>
<text text-anchor="middle" x="123.3349" y="-1526.3" font-family="Times,serif" font-size="14.00" fill="#000000">x24_128 (r8:r10)</text>
</g>
<!-- x26_128 -->
<g id="node16" class="node">
<title>x26_128</title>
<ellipse fill="none" stroke="#000000" cx="537.3349" cy="-1458" rx="71.4873" ry="18"/>
<text text-anchor="middle" x="537.3349" y="-1454.3" font-family="Times,serif" font-size="14.00" fill="#000000">x26_128 (r8:r10)</text>
</g>
<!-- x24_128&#45;&gt;x26_128 -->
<g id="edge28" class="edge">
<title>x24_128&#45;&gt;x26_128</title>
<path fill="none" stroke="#000000" d="M176.3998,-1517.7464C185.6912,-1515.7329 195.2807,-1513.7386 204.3349,-1512 293.7831,-1494.8237 397.4445,-1478.588 465.0404,-1468.4888"/>
<polygon fill="#000000" stroke="#000000" points="465.7828,-1471.9169 475.1585,-1466.9827 464.7522,-1464.9932 465.7828,-1471.9169"/>
</g>
<!-- x26_128&#45;&gt;x28_128 -->
<g id="edge32" class="edge">
<title>x26_128&#45;&gt;x28_128</title>
<path fill="none" stroke="#000000" d="M595.7178,-1447.4979C612.3537,-1444.7635 630.5236,-1442.0211 647.3349,-1440 853.5779,-1415.2047 907.8346,-1434.3425 1113.3349,-1404 1119.9224,-1403.0273 1126.7704,-1401.8285 1133.576,-1400.5153"/>
<polygon fill="#000000" stroke="#000000" points="1134.3683,-1403.9261 1143.4815,-1398.5224 1132.9875,-1397.0636 1134.3683,-1403.9261"/>
</g>
<!-- x21_128 -->
<g id="node17" class="node">
<title>x21_128</title>
<ellipse fill="none" stroke="#000000" cx="882.3349" cy="-1530" rx="81.4863" ry="18"/>
<text text-anchor="middle" x="882.3349" y="-1526.3" font-family="Times,serif" font-size="14.00" fill="#000000">x21_128 (RSP:r13)</text>
</g>
<!-- x23_128 -->
<g id="node19" class="node">
<title>x23_128</title>
<ellipse fill="none" stroke="#000000" cx="882.3349" cy="-1458" rx="81.4863" ry="18"/>
<text text-anchor="middle" x="882.3349" y="-1454.3" font-family="Times,serif" font-size="14.00" fill="#000000">x23_128 (RSP:r13)</text>
</g>
<!-- x21_128&#45;&gt;x23_128 -->
<g id="edge22" class="edge">
<title>x21_128&#45;&gt;x23_128</title>
<path fill="none" stroke="#000000" d="M882.3349,-1511.8314C882.3349,-1504.131 882.3349,-1494.9743 882.3349,-1486.4166"/>
<polygon fill="#000000" stroke="#000000" points="885.835,-1486.4132 882.3349,-1476.4133 878.835,-1486.4133 885.835,-1486.4132"/>
</g>
<!-- x20_128 -->
<g id="node18" class="node">
<title>x20_128</title>
<ellipse fill="none" stroke="#000000" cx="396.3349" cy="-1530" rx="81.4863" ry="18"/>
<text text-anchor="middle" x="396.3349" y="-1526.3" font-family="Times,serif" font-size="14.00" fill="#000000">x20_128 (RBP:r11)</text>
</g>
<!-- x50_128 -->
<g id="node30" class="node">
<title>x50_128</title>
<ellipse fill="none" stroke="#000000" cx="1676.3349" cy="-1386" rx="81.4863" ry="18"/>
<text text-anchor="middle" x="1676.3349" y="-1382.3" font-family="Times,serif" font-size="14.00" fill="#000000">x50_128 (RBP:r11)</text>
</g>
<!-- x20_128&#45;&gt;x50_128 -->
<g id="edge72" class="edge">
<title>x20_128&#45;&gt;x50_128</title>
<path fill="none" stroke="#000000" d="M450.3189,-1516.5483C542.4443,-1493.792 726.4453,-1449.2624 792.3349,-1440 1076.2128,-1400.0939 1150.2777,-1422.7208 1436.3349,-1404 1487.2111,-1400.6704 1544.1134,-1396.4255 1589.7385,-1392.8942"/>
<polygon fill="#000000" stroke="#000000" points="1590.1905,-1396.3697 1599.8895,-1392.1059 1589.6485,-1389.3907 1590.1905,-1396.3697"/>
</g>
<!-- x23_128&#45;&gt;x58_128 -->
<g id="edge88" class="edge">
<title>x23_128&#45;&gt;x58_128</title>
<path fill="none" stroke="#000000" d="M914.6831,-1441.4817C934.5138,-1431.3554 960.1078,-1418.2862 981.4737,-1407.3759"/>
<polygon fill="#000000" stroke="#000000" points="983.3345,-1410.3557 990.6489,-1402.6907 980.1511,-1404.1214 983.3345,-1410.3557"/>
</g>
<!-- x83 -->
<g id="node20" class="node">
<title>x83</title>
<ellipse fill="none" stroke="#000000" cx="1529.3349" cy="-450" rx="44.393" ry="18"/>
<text text-anchor="middle" x="1529.3349" y="-446.3" font-family="Times,serif" font-size="14.00" fill="#000000">x83 (r12)</text>
</g>
<!-- x84 -->
<g id="node27" class="node">
<title>x84</title>
<ellipse fill="none" stroke="#000000" cx="1593.3349" cy="-378" rx="43.5923" ry="18"/>
<text text-anchor="middle" x="1593.3349" y="-374.3" font-family="Times,serif" font-size="14.00" fill="#000000">x84 (r11)</text>
</g>
<!-- x83&#45;&gt;x84 -->
<g id="edge130" class="edge">
<title>x83&#45;&gt;x84</title>
<path fill="none" stroke="#000000" d="M1544.502,-432.937C1552.5521,-423.8806 1562.589,-412.5891 1571.4661,-402.6023"/>
<polygon fill="#000000" stroke="#000000" points="1574.2489,-404.7399 1578.2766,-394.9405 1569.017,-400.0893 1574.2489,-404.7399"/>
</g>
<!-- x82 -->
<g id="node21" class="node">
<title>x82</title>
<ellipse fill="none" stroke="#000000" cx="1635.3349" cy="-450" rx="44.393" ry="18"/>
<text text-anchor="middle" x="1635.3349" y="-446.3" font-family="Times,serif" font-size="14.00" fill="#000000">x82 (r15)</text>
</g>
<!-- x82&#45;&gt;out -->
<g id="edge11" class="edge">
<title>x82&#45;&gt;out</title>
<path fill="none" stroke="#000000" d="M1606.0282,-436.3234C1586.4614,-426.4959 1560.685,-412.1675 1540.3349,-396 1497.7306,-362.1523 1457.3349,-360.4131 1457.3349,-306 1457.3349,-306 1457.3349,-306 1457.3349,-162 1457.3349,-121.1184 1450.4533,-103.6457 1476.3349,-72 1498.3946,-45.0274 1536.4911,-31.2132 1564.844,-24.3467"/>
<polygon fill="#000000" stroke="#000000" points="1565.8062,-27.718 1574.8012,-22.1198 1564.2784,-20.8868 1565.8062,-27.718"/>
</g>
<!-- x81 -->
<g id="node22" class="node">
<title>x81</title>
<ellipse fill="none" stroke="#000000" cx="1534.3349" cy="-522" rx="44.393" ry="18"/>
<text text-anchor="middle" x="1534.3349" y="-518.3" font-family="Times,serif" font-size="14.00" fill="#000000">x81 (r12)</text>
</g>
<!-- x81&#45;&gt;x83 -->
<g id="edge128" class="edge">
<title>x81&#45;&gt;x83</title>
<path fill="none" stroke="#000000" d="M1533.0732,-503.8314C1532.5384,-496.131 1531.9025,-486.9743 1531.3082,-478.4166"/>
<polygon fill="#000000" stroke="#000000" points="1534.798,-478.1467 1530.6136,-468.4133 1527.8148,-478.6317 1534.798,-478.1467"/>
</g>
<!-- x80_128&#45;&gt;x82 -->
<g id="edge127" class="edge">
<title>x80_128&#45;&gt;x82</title>
<path fill="none" stroke="#000000" d="M1557.5142,-576.3451C1566.9283,-566.1805 1578.4527,-552.8976 1587.3349,-540 1601.1271,-519.9726 1613.934,-495.5349 1622.8442,-477.1809"/>
<polygon fill="#000000" stroke="#000000" points="1626.1079,-478.4681 1627.2538,-467.9354 1619.7897,-475.4547 1626.1079,-478.4681"/>
</g>
<!-- x80_128&#45;&gt;x81 -->
<g id="edge126" class="edge">
<title>x80_128&#45;&gt;x81</title>
<path fill="none" stroke="#000000" d="M1538.8208,-575.8314C1538.1791,-568.131 1537.4161,-558.9743 1536.7029,-550.4166"/>
<polygon fill="#000000" stroke="#000000" points="1540.1878,-550.088 1535.8693,-540.4133 1533.2119,-550.6694 1540.1878,-550.088"/>
</g>
<!-- x87 -->
<g id="node24" class="node">
<title>x87</title>
<ellipse fill="none" stroke="#000000" cx="1530.3349" cy="-234" rx="44.393" ry="18"/>
<text text-anchor="middle" x="1530.3349" y="-230.3" font-family="Times,serif" font-size="14.00" fill="#000000">x87 (r12)</text>
</g>
<!-- x89 -->
<g id="node28" class="node">
<title>x89</title>
<ellipse fill="none" stroke="#000000" cx="1529.3349" cy="-90" rx="44.393" ry="18"/>
<text text-anchor="middle" x="1529.3349" y="-86.3" font-family="Times,serif" font-size="14.00" fill="#000000">x89 (r12)</text>
</g>
<!-- x87&#45;&gt;x89 -->
<g id="edge136" class="edge">
<title>x87&#45;&gt;x89</title>
<path fill="none" stroke="#000000" d="M1523.5154,-215.7996C1520.0068,-205.4645 1516.1032,-192.1925 1514.3349,-180 1512.0384,-164.1657 1512.1739,-159.8534 1514.3349,-144 1515.512,-135.3639 1517.702,-126.1599 1520.0518,-117.8427"/>
<polygon fill="#000000" stroke="#000000" points="1523.4128,-118.8195 1522.9401,-108.2353 1516.7092,-116.8042 1523.4128,-118.8195"/>
</g>
<!-- x88 -->
<g id="node29" class="node">
<title>x88</title>
<ellipse fill="none" stroke="#000000" cx="1567.3349" cy="-162" rx="44.393" ry="18"/>
<text text-anchor="middle" x="1567.3349" y="-158.3" font-family="Times,serif" font-size="14.00" fill="#000000">x88 (r13)</text>
</g>
<!-- x87&#45;&gt;x88 -->
<g id="edge135" class="edge">
<title>x87&#45;&gt;x88</title>
<path fill="none" stroke="#000000" d="M1539.4809,-216.2022C1543.7057,-207.981 1548.8138,-198.041 1553.4958,-188.9301"/>
<polygon fill="#000000" stroke="#000000" points="1556.708,-190.3366 1558.1658,-179.8425 1550.482,-187.1371 1556.708,-190.3366"/>
</g>
<!-- x86 -->
<g id="node25" class="node">
<title>x86</title>
<ellipse fill="none" stroke="#000000" cx="1637.3349" cy="-234" rx="43.5923" ry="18"/>
<text text-anchor="middle" x="1637.3349" y="-230.3" font-family="Times,serif" font-size="14.00" fill="#000000">x86 (r11)</text>
</g>
<!-- x86&#45;&gt;out -->
<g id="edge15" class="edge">
<title>x86&#45;&gt;out</title>
<path fill="none" stroke="#000000" d="M1634.3274,-215.9555C1628.0539,-178.3144 1613.5326,-91.1867 1606.0223,-46.1246"/>
<polygon fill="#000000" stroke="#000000" points="1609.4555,-45.4336 1604.359,-36.1451 1602.5507,-46.5844 1609.4555,-45.4336"/>
</g>
<!-- x85 -->
<g id="node26" class="node">
<title>x85</title>
<ellipse fill="none" stroke="#000000" cx="1539.3349" cy="-306" rx="44.393" ry="18"/>
<text text-anchor="middle" x="1539.3349" y="-302.3" font-family="Times,serif" font-size="14.00" fill="#000000">x85 (r12)</text>
</g>
<!-- x85&#45;&gt;x87 -->
<g id="edge134" class="edge">
<title>x85&#45;&gt;x87</title>
<path fill="none" stroke="#000000" d="M1537.0638,-287.8314C1536.1012,-280.131 1534.9567,-270.9743 1533.8869,-262.4166"/>
<polygon fill="#000000" stroke="#000000" points="1537.3499,-261.9019 1532.6365,-252.4133 1530.404,-262.7702 1537.3499,-261.9019"/>
</g>
<!-- x84&#45;&gt;x86 -->
<g id="edge132" class="edge">
<title>x84&#45;&gt;x86</title>
<path fill="none" stroke="#000000" d="M1598.8185,-360.0535C1606.3279,-335.4774 1619.8874,-291.1008 1628.7495,-262.0974"/>
<polygon fill="#000000" stroke="#000000" points="1632.2071,-262.759 1631.7821,-252.1727 1625.5126,-260.7134 1632.2071,-262.759"/>
</g>
<!-- x84&#45;&gt;x85 -->
<g id="edge131" class="edge">
<title>x84&#45;&gt;x85</title>
<path fill="none" stroke="#000000" d="M1580.263,-360.5708C1573.6964,-351.8153 1565.6162,-341.0418 1558.3749,-331.3867"/>
<polygon fill="#000000" stroke="#000000" points="1561.0864,-329.1687 1552.2864,-323.2687 1555.4864,-333.3687 1561.0864,-329.1687"/>
</g>
<!-- x89&#45;&gt;out -->
<g id="edge14" class="edge">
<title>x89&#45;&gt;out</title>
<path fill="none" stroke="#000000" d="M1546.0341,-73.3008C1555.7952,-63.5397 1568.244,-51.0909 1578.8579,-40.477"/>
<polygon fill="#000000" stroke="#000000" points="1581.6012,-42.6834 1586.1974,-33.1374 1576.6514,-37.7337 1581.6012,-42.6834"/>
</g>
<!-- x88&#45;&gt;x90 -->
<g id="edge138" class="edge">
<title>x88&#45;&gt;x90</title>
<path fill="none" stroke="#000000" d="M1590.0745,-146.5542C1605.2009,-136.2797 1625.2728,-122.6459 1641.9189,-111.3392"/>
<polygon fill="#000000" stroke="#000000" points="1643.9615,-114.1828 1650.2671,-105.6687 1640.0283,-108.3923 1643.9615,-114.1828"/>
</g>
<!-- x52_128 -->
<g id="node37" class="node">
<title>x52_128</title>
<ellipse fill="none" stroke="#000000" cx="1749.3349" cy="-1314" rx="81.4863" ry="18"/>
<text text-anchor="middle" x="1749.3349" y="-1310.3" font-family="Times,serif" font-size="14.00" fill="#000000">x52_128 (RBP:r11)</text>
</g>
<!-- x50_128&#45;&gt;x52_128 -->
<g id="edge76" class="edge">
<title>x50_128&#45;&gt;x52_128</title>
<path fill="none" stroke="#000000" d="M1694.3798,-1368.2022C1703.3967,-1359.3088 1714.4528,-1348.4042 1724.2781,-1338.7135"/>
<polygon fill="#000000" stroke="#000000" points="1726.8356,-1341.1071 1731.4975,-1331.593 1721.92,-1336.1233 1726.8356,-1341.1071"/>
</g>
<!-- x5 -->
<g id="node31" class="node">
<title>x5</title>
<ellipse fill="none" stroke="#000000" cx="910.3349" cy="-1602" rx="39.7935" ry="18"/>
<text text-anchor="middle" x="910.3349" y="-1598.3" font-family="Times,serif" font-size="14.00" fill="#000000">x5 (r12)</text>
</g>
<!-- x5&#45;&gt;x29_128 -->
<g id="edge35" class="edge">
<title>x5&#45;&gt;x29_128</title>
<path fill="none" stroke="#000000" d="M944.5842,-1592.61C957.8388,-1589.3416 973.1975,-1585.9965 987.3349,-1584 1298.4334,-1540.0658 1382,-1590.2266 1693.3349,-1548 1699.705,-1547.136 1706.3156,-1546.0263 1712.8892,-1544.7827"/>
<polygon fill="#000000" stroke="#000000" points="1714.0277,-1548.1246 1723.149,-1542.7346 1712.6572,-1541.2601 1714.0277,-1548.1246"/>
</g>
<!-- x5&#45;&gt;x24_128 -->
<g id="edge25" class="edge">
<title>x5&#45;&gt;x24_128</title>
<path fill="none" stroke="#000000" d="M870.6949,-1600.9446C763.027,-1597.6523 456.3355,-1585.443 204.3349,-1548 198.0697,-1547.0691 191.5672,-1545.927 185.0938,-1544.6737"/>
<polygon fill="#000000" stroke="#000000" points="185.4791,-1541.1808 174.9834,-1542.627 184.0902,-1548.0416 185.4791,-1541.1808"/>
</g>
<!-- x5&#45;&gt;x21_128 -->
<g id="edge19" class="edge">
<title>x5&#45;&gt;x21_128</title>
<path fill="none" stroke="#000000" d="M903.4135,-1584.2022C900.2738,-1576.1287 896.4895,-1566.3976 892.999,-1557.422"/>
<polygon fill="#000000" stroke="#000000" points="896.2576,-1556.1446 889.3711,-1548.0931 889.7336,-1558.6818 896.2576,-1556.1446"/>
</g>
<!-- x5&#45;&gt;x20_128 -->
<g id="edge17" class="edge">
<title>x5&#45;&gt;x20_128</title>
<path fill="none" stroke="#000000" d="M871.6181,-1597.9964C796.892,-1590.0642 627.6758,-1571.1049 486.3349,-1548 479.5728,-1546.8946 472.5432,-1545.6527 465.5266,-1544.3514"/>
<polygon fill="#000000" stroke="#000000" points="465.7654,-1540.8344 455.2886,-1542.4112 464.462,-1547.712 465.7654,-1540.8344"/>
</g>
<!-- x36_128 -->
<g id="node36" class="node">
<title>x36_128</title>
<ellipse fill="none" stroke="#000000" cx="1159.3349" cy="-1530" rx="75.2868" ry="18"/>
<text text-anchor="middle" x="1159.3349" y="-1526.3" font-family="Times,serif" font-size="14.00" fill="#000000">x36_128 (r12:r15)</text>
</g>
<!-- x5&#45;&gt;x36_128 -->
<g id="edge49" class="edge">
<title>x5&#45;&gt;x36_128</title>
<path fill="none" stroke="#000000" d="M943.9161,-1592.2898C984.1539,-1580.6547 1052.2512,-1560.964 1101.1177,-1546.8339"/>
<polygon fill="#000000" stroke="#000000" points="1102.2941,-1550.1372 1110.9283,-1543.9971 1100.3496,-1543.4127 1102.2941,-1550.1372"/>
</g>
<!-- x54_128 -->
<g id="node32" class="node">
<title>x54_128</title>
<ellipse fill="none" stroke="#000000" cx="1723.3349" cy="-1242" rx="81.4863" ry="18"/>
<text text-anchor="middle" x="1723.3349" y="-1238.3" font-family="Times,serif" font-size="14.00" fill="#000000">x54_128 (RBP:r11)</text>
</g>
<!-- x56_128 -->
<g id="node34" class="node">
<title>x56_128</title>
<ellipse fill="none" stroke="#000000" cx="1706.3349" cy="-1170" rx="81.4863" ry="18"/>
<text text-anchor="middle" x="1706.3349" y="-1166.3" font-family="Times,serif" font-size="14.00" fill="#000000">x56_128 (RBP:r11)</text>
</g>
<!-- x54_128&#45;&gt;x56_128 -->
<g id="edge84" class="edge">
<title>x54_128&#45;&gt;x56_128</title>
<path fill="none" stroke="#000000" d="M1719.045,-1223.8314C1717.2269,-1216.131 1715.0649,-1206.9743 1713.0443,-1198.4166"/>
<polygon fill="#000000" stroke="#000000" points="1716.3868,-1197.3414 1710.6824,-1188.4133 1709.5741,-1198.95 1716.3868,-1197.3414"/>
</g>
<!-- x33_128 -->
<g id="node33" class="node">
<title>x33_128</title>
<ellipse fill="none" stroke="#000000" cx="1356.3349" cy="-1386" rx="71.4873" ry="18"/>
<text text-anchor="middle" x="1356.3349" y="-1382.3" font-family="Times,serif" font-size="14.00" fill="#000000">x33_128 (r9:r14)</text>
</g>
<!-- x35_128 -->
<g id="node43" class="node">
<title>x35_128</title>
<ellipse fill="none" stroke="#000000" cx="1357.3349" cy="-1314" rx="71.4873" ry="18"/>
<text text-anchor="middle" x="1357.3349" y="-1310.3" font-family="Times,serif" font-size="14.00" fill="#000000">x35_128 (r9:r14)</text>
</g>
<!-- x33_128&#45;&gt;x35_128 -->
<g id="edge46" class="edge">
<title>x33_128&#45;&gt;x35_128</title>
<path fill="none" stroke="#000000" d="M1356.5872,-1367.8314C1356.6942,-1360.131 1356.8213,-1350.9743 1356.9402,-1342.4166"/>
<polygon fill="#000000" stroke="#000000" points="1360.4398,-1342.4609 1357.0791,-1332.4133 1353.4405,-1342.3637 1360.4398,-1342.4609"/>
</g>
<!-- x56_128&#45;&gt;x69 -->
<g id="edge110" class="edge">
<title>x56_128&#45;&gt;x69</title>
<path fill="none" stroke="#000000" d="M1701.5404,-1151.8314C1699.486,-1144.0463 1697.0388,-1134.7729 1694.7593,-1126.1347"/>
<polygon fill="#000000" stroke="#000000" points="1698.1297,-1125.1892 1692.1939,-1116.4133 1691.3614,-1126.9753 1698.1297,-1125.1892"/>
</g>
<!-- x70 -->
<g id="node46" class="node">
<title>x70</title>
<ellipse fill="none" stroke="#000000" cx="1822.3349" cy="-1026" rx="43.5923" ry="18"/>
<text text-anchor="middle" x="1822.3349" y="-1022.3" font-family="Times,serif" font-size="14.00" fill="#000000">x70 (r11)</text>
</g>
<!-- x56_128&#45;&gt;x70 -->
<g id="edge111" class="edge">
<title>x56_128&#45;&gt;x70</title>
<path fill="none" stroke="#000000" d="M1720.7918,-1152.0535C1741.2445,-1126.6639 1778.7209,-1080.1415 1801.979,-1051.2693"/>
<polygon fill="#000000" stroke="#000000" points="1804.8732,-1053.2557 1808.4209,-1043.2725 1799.4219,-1048.8644 1804.8732,-1053.2557"/>
</g>
<!-- x31_128&#45;&gt;x33_128 -->
<g id="edge42" class="edge">
<title>x31_128&#45;&gt;x33_128</title>
<path fill="none" stroke="#000000" d="M1512.5163,-1443.0816C1481.7439,-1431.8348 1439.3745,-1416.3495 1406.5291,-1404.3451"/>
<polygon fill="#000000" stroke="#000000" points="1407.6949,-1401.0448 1397.1011,-1400.8993 1405.292,-1407.6195 1407.6949,-1401.0448"/>
</g>
<!-- x38_128 -->
<g id="node42" class="node">
<title>x38_128</title>
<ellipse fill="none" stroke="#000000" cx="1351.3349" cy="-1458" rx="75.2868" ry="18"/>
<text text-anchor="middle" x="1351.3349" y="-1454.3" font-family="Times,serif" font-size="14.00" fill="#000000">x38_128 (r12:r15)</text>
</g>
<!-- x36_128&#45;&gt;x38_128 -->
<g id="edge52" class="edge">
<title>x36_128&#45;&gt;x38_128</title>
<path fill="none" stroke="#000000" d="M1200.0531,-1514.7307C1229.5815,-1503.6575 1269.6951,-1488.6149 1301.1967,-1476.8018"/>
<polygon fill="#000000" stroke="#000000" points="1302.541,-1480.0358 1310.6753,-1473.2473 1300.083,-1473.4815 1302.541,-1480.0358"/>
</g>
<!-- x52_128&#45;&gt;x54_128 -->
<g id="edge80" class="edge">
<title>x52_128&#45;&gt;x54_128</title>
<path fill="none" stroke="#000000" d="M1742.774,-1295.8314C1739.9321,-1287.9617 1736.5411,-1278.5712 1733.393,-1269.8533"/>
<polygon fill="#000000" stroke="#000000" points="1736.6725,-1268.63 1729.9841,-1260.4133 1730.0887,-1271.0076 1736.6725,-1268.63"/>
</g>
<!-- x78 -->
<g id="node38" class="node">
<title>x78</title>
<ellipse fill="none" stroke="#000000" cx="1579.3349" cy="-666" rx="39.7935" ry="18"/>
<text text-anchor="middle" x="1579.3349" y="-662.3" font-family="Times,serif" font-size="14.00" fill="#000000">x78 (r9)</text>
</g>
<!-- x78&#45;&gt;x80_128 -->
<g id="edge125" class="edge">
<title>x78&#45;&gt;x80_128</title>
<path fill="none" stroke="#000000" d="M1569.6944,-648.2022C1565.2747,-640.0428 1559.938,-630.1904 1555.0334,-621.1358"/>
<polygon fill="#000000" stroke="#000000" points="1557.9757,-619.219 1550.1353,-612.0931 1551.8207,-622.5531 1557.9757,-619.219"/>
</g>
<!-- x79 -->
<g id="node39" class="node">
<title>x79</title>
<ellipse fill="none" stroke="#000000" cx="1700.3349" cy="-594" rx="44.393" ry="18"/>
<text text-anchor="middle" x="1700.3349" y="-590.3" font-family="Times,serif" font-size="14.00" fill="#000000">x79 (r14)</text>
</g>
<!-- x79&#45;&gt;out -->
<g id="edge12" class="edge">
<title>x79&#45;&gt;out</title>
<path fill="none" stroke="#000000" d="M1709.6589,-576.3703C1722.8397,-549.7628 1745.3349,-497.408 1745.3349,-450 1745.3349,-450 1745.3349,-450 1745.3349,-162 1745.3349,-121.1184 1752.2165,-103.6457 1726.3349,-72 1704.2751,-45.0274 1666.1787,-31.2132 1637.8258,-24.3467"/>
<polygon fill="#000000" stroke="#000000" points="1638.3914,-20.8868 1627.8685,-22.1198 1636.8635,-27.718 1638.3914,-20.8868"/>
</g>
<!-- x76 -->
<g id="node40" class="node">
<title>x76</title>
<ellipse fill="none" stroke="#000000" cx="1887.3349" cy="-738" rx="44.393" ry="18"/>
<text text-anchor="middle" x="1887.3349" y="-734.3" font-family="Times,serif" font-size="14.00" fill="#000000">x76 (r10)</text>
</g>
<!-- x76&#45;&gt;x90 -->
<g id="edge137" class="edge">
<title>x76&#45;&gt;x90</title>
<path fill="none" stroke="#000000" d="M1877.182,-720.4707C1862.8296,-693.9913 1838.3349,-641.798 1838.3349,-594 1838.3349,-594 1838.3349,-594 1838.3349,-234 1838.3349,-169.127 1765.0373,-126.7614 1716.1485,-105.7191"/>
<polygon fill="#000000" stroke="#000000" points="1717.3021,-102.4082 1706.7251,-101.7946 1714.6109,-108.8702 1717.3021,-102.4082"/>
</g>
<!-- x77_128&#45;&gt;x78 -->
<g id="edge122" class="edge">
<title>x77_128&#45;&gt;x78</title>
<path fill="none" stroke="#000000" d="M1616.9753,-720.2022C1610.9972,-711.5938 1603.7106,-701.1011 1597.1465,-691.6488"/>
<polygon fill="#000000" stroke="#000000" points="1599.9585,-689.5619 1591.3797,-683.3446 1594.2089,-693.5547 1599.9585,-689.5619"/>
</g>
<!-- x77_128&#45;&gt;x79 -->
<g id="edge123" class="edge">
<title>x77_128&#45;&gt;x79</title>
<path fill="none" stroke="#000000" d="M1638.1835,-720.0535C1650.474,-695.1263 1672.8081,-649.8289 1687.0894,-620.8641"/>
<polygon fill="#000000" stroke="#000000" points="1690.3146,-622.2372 1691.5977,-611.7204 1684.0363,-619.1416 1690.3146,-622.2372"/>
</g>
<!-- x38_128&#45;&gt;x40_128 -->
<g id="edge56" class="edge">
<title>x38_128&#45;&gt;x40_128</title>
<path fill="none" stroke="#000000" d="M1414.923,-1448.276C1433.7166,-1445.4946 1454.3412,-1442.5327 1473.3349,-1440 1543.8512,-1430.5969 1738.4672,-1407.7999 1848.2914,-1395.037"/>
<polygon fill="#000000" stroke="#000000" points="1848.7934,-1398.5023 1858.3227,-1393.8718 1847.9856,-1391.5491 1848.7934,-1398.5023"/>
</g>
<!-- x35_128&#45;&gt;x68_128 -->
<g id="edge108" class="edge">
<title>x35_128&#45;&gt;x68_128</title>
<path fill="none" stroke="#000000" d="M1357.3349,-1295.8314C1357.3349,-1288.131 1357.3349,-1278.9743 1357.3349,-1270.4166"/>
<polygon fill="#000000" stroke="#000000" points="1360.835,-1270.4132 1357.3349,-1260.4133 1353.835,-1270.4133 1360.835,-1270.4132"/>
</g>
<!-- x72 -->
<g id="node44" class="node">
<title>x72</title>
<ellipse fill="none" stroke="#000000" cx="1689.3349" cy="-954" rx="49.2915" ry="18"/>
<text text-anchor="middle" x="1689.3349" y="-950.3" font-family="Times,serif" font-size="14.00" fill="#000000">x72 (RSP)</text>
</g>
<!-- x72&#45;&gt;x74_128 -->
<g id="edge117" class="edge">
<title>x72&#45;&gt;x74_128</title>
<path fill="none" stroke="#000000" d="M1724.5545,-941.1278C1755.611,-929.7772 1801.2222,-913.1072 1836.1046,-900.3583"/>
<polygon fill="#000000" stroke="#000000" points="1837.4468,-903.5942 1845.6377,-896.8741 1835.0439,-897.0196 1837.4468,-903.5942"/>
</g>
<!-- x73 -->
<g id="node45" class="node">
<title>x73</title>
<ellipse fill="none" stroke="#000000" cx="1537.3349" cy="-882" rx="44.393" ry="18"/>
<text text-anchor="middle" x="1537.3349" y="-878.3" font-family="Times,serif" font-size="14.00" fill="#000000">x73 (r13)</text>
</g>
<!-- x73&#45;&gt;x87 -->
<g id="edge133" class="edge">
<title>x73&#45;&gt;x87</title>
<path fill="none" stroke="#000000" d="M1512.5982,-867.036C1477.9968,-843.9992 1419.3349,-796.3403 1419.3349,-738 1419.3349,-738 1419.3349,-738 1419.3349,-378 1419.3349,-325.6985 1465.8349,-280.7758 1498.6416,-255.5904"/>
<polygon fill="#000000" stroke="#000000" points="1501.1336,-258.0987 1507.0656,-249.3202 1496.954,-252.4834 1501.1336,-258.0987"/>
</g>
<!-- x70&#45;&gt;x84 -->
<g id="edge129" class="edge">
<title>x70&#45;&gt;x84</title>
<path fill="none" stroke="#000000" d="M1814.254,-1008.2344C1802.8307,-981.4535 1783.3349,-928.8802 1783.3349,-882 1783.3349,-882 1783.3349,-882 1783.3349,-522 1783.3349,-450.3523 1696.4588,-409.7576 1640.1973,-390.9804"/>
<polygon fill="#000000" stroke="#000000" points="1641.0113,-387.5656 1630.4198,-387.8321 1638.8658,-394.2287 1641.0113,-387.5656"/>
</g>
<!-- x71_128&#45;&gt;x72 -->
<g id="edge114" class="edge">
<title>x71_128&#45;&gt;x72</title>
<path fill="none" stroke="#000000" d="M1681.8583,-1007.8314C1682.9278,-1000.131 1684.1995,-990.9743 1685.3881,-982.4166"/>
<polygon fill="#000000" stroke="#000000" points="1688.8684,-982.7997 1686.7775,-972.4133 1681.935,-981.8367 1688.8684,-982.7997"/>
</g>
<!-- x71_128&#45;&gt;x73 -->
<g id="edge115" class="edge">
<title>x71_128&#45;&gt;x73</title>
<path fill="none" stroke="#000000" d="M1661.9229,-1008.3428C1636.633,-982.6967 1589.6564,-935.0584 1561.1714,-906.1723"/>
<polygon fill="#000000" stroke="#000000" points="1563.5203,-903.5695 1554.0067,-898.9066 1558.536,-908.4845 1563.5203,-903.5695"/>
</g>
<!-- x18 -->
<g id="node48" class="node">
<title>x18</title>
<ellipse fill="none" stroke="#000000" cx="2114.3349" cy="-1602" rx="44.393" ry="18"/>
<text text-anchor="middle" x="2114.3349" y="-1598.3" font-family="Times,serif" font-size="14.00" fill="#000000">x18 (r15)</text>
</g>
<!-- x18&#45;&gt;x36_128 -->
<g id="edge48" class="edge">
<title>x18&#45;&gt;x36_128</title>
<path fill="none" stroke="#000000" d="M2070.8562,-1598.4286C2023.519,-1594.6 1945.5761,-1588.4699 1878.3349,-1584 1596.282,-1565.2503 1523.4814,-1585.7268 1243.3349,-1548 1236.6811,-1547.104 1229.7701,-1545.9665 1222.8979,-1544.7001"/>
<polygon fill="#000000" stroke="#000000" points="1223.3744,-1541.2275 1212.8918,-1542.7658 1222.0457,-1548.1003 1223.3744,-1541.2275"/>
</g>
<!-- x51_128 -->
<g id="node75" class="node">
<title>x51_128</title>
<ellipse fill="none" stroke="#000000" cx="1889.3349" cy="-1458" rx="42.4939" ry="18"/>
<text text-anchor="middle" x="1889.3349" y="-1454.3" font-family="Times,serif" font-size="14.00" fill="#000000">x51_128</text>
</g>
<!-- x18&#45;&gt;x51_128 -->
<g id="edge74" class="edge">
<title>x18&#45;&gt;x51_128</title>
<path fill="none" stroke="#000000" d="M2116.6393,-1583.9996C2118.1496,-1563.8564 2117.2138,-1531.4972 2099.3349,-1512 2088.3543,-1500.0256 1996.685,-1479.6444 1938.146,-1467.6402"/>
<polygon fill="#000000" stroke="#000000" points="1938.4818,-1464.1369 1927.9847,-1465.5722 1937.0857,-1470.9963 1938.4818,-1464.1369"/>
</g>
<!-- x59_128 -->
<g id="node79" class="node">
<title>x59_128</title>
<ellipse fill="none" stroke="#000000" cx="1787.3349" cy="-1458" rx="42.4939" ry="18"/>
<text text-anchor="middle" x="1787.3349" y="-1454.3" font-family="Times,serif" font-size="14.00" fill="#000000">x59_128</text>
</g>
<!-- x18&#45;&gt;x59_128 -->
<g id="edge90" class="edge">
<title>x18&#45;&gt;x59_128</title>
<path fill="none" stroke="#000000" d="M2109.9187,-1583.8957C2103.8238,-1563.0202 2090.7141,-1529.3575 2066.3349,-1512 1982.7639,-1452.4992 1937.7862,-1501.1768 1838.3349,-1476 1835.1491,-1475.1935 1831.8811,-1474.2711 1828.6129,-1473.2795"/>
<polygon fill="#000000" stroke="#000000" points="1829.4817,-1469.8822 1818.8901,-1470.144 1827.3332,-1476.5443 1829.4817,-1469.8822"/>
</g>
<!-- x65_128 -->
<g id="node82" class="node">
<title>x65_128</title>
<ellipse fill="none" stroke="#000000" cx="2373.3349" cy="-1458" rx="42.4939" ry="18"/>
<text text-anchor="middle" x="2373.3349" y="-1454.3" font-family="Times,serif" font-size="14.00" fill="#000000">x65_128</text>
</g>
<!-- x18&#45;&gt;x65_128 -->
<g id="edge102" class="edge">
<title>x18&#45;&gt;x65_128</title>
<path fill="none" stroke="#000000" d="M2157.5822,-1597.8386C2219.0532,-1591.0277 2327.2612,-1575.435 2354.3349,-1548 2370.2134,-1531.9095 2374.3411,-1506.0948 2374.8583,-1486.23"/>
<polygon fill="#000000" stroke="#000000" points="2378.3583,-1486.1788 2374.8345,-1476.1871 2371.3583,-1486.1954 2378.3583,-1486.1788"/>
</g>
<!-- x67_128 -->
<g id="node83" class="node">
<title>x67_128</title>
<ellipse fill="none" stroke="#000000" cx="2131.3349" cy="-1458" rx="42.4939" ry="18"/>
<text text-anchor="middle" x="2131.3349" y="-1454.3" font-family="Times,serif" font-size="14.00" fill="#000000">x67_128</text>
</g>
<!-- x18&#45;&gt;x67_128 -->
<g id="edge106" class="edge">
<title>x18&#45;&gt;x67_128</title>
<path fill="none" stroke="#000000" d="M2124.1181,-1584.0994C2129.1555,-1573.858 2134.7674,-1560.58 2137.3349,-1548 2141.5036,-1527.5741 2139.7142,-1504.0541 2137.036,-1486.1816"/>
<polygon fill="#000000" stroke="#000000" points="2140.4543,-1485.4024 2135.347,-1476.1198 2133.5508,-1486.5612 2140.4543,-1485.4024"/>
</g>
<!-- x74_128&#45;&gt;x75 -->
<g id="edge118" class="edge">
<title>x74_128&#45;&gt;x75</title>
<path fill="none" stroke="#000000" d="M1877.5029,-863.8314C1873.5767,-855.7547 1868.8719,-846.0761 1864.5409,-837.1668"/>
<polygon fill="#000000" stroke="#000000" points="1867.5625,-835.3769 1860.0428,-827.9134 1861.267,-838.4373 1867.5625,-835.3769"/>
</g>
<!-- x74_128&#45;&gt;x76 -->
<g id="edge119" class="edge">
<title>x74_128&#45;&gt;x76</title>
<path fill="none" stroke="#000000" d="M1892.3047,-863.7319C1895.3756,-853.3756 1898.7912,-840.105 1900.3349,-828 1902.3588,-812.1285 1902.2204,-807.8885 1900.3349,-792 1899.3281,-783.5166 1897.4612,-774.4376 1895.4501,-766.1913"/>
<polygon fill="#000000" stroke="#000000" points="1898.7821,-765.0971 1892.8795,-756.2988 1892.0071,-766.8576 1898.7821,-765.0971"/>
</g>
<!-- in -->
<g id="node50" class="node">
<title>in</title>
<ellipse fill="none" stroke="#000000" cx="1489.3349" cy="-1674" rx="27" ry="18"/>
<text text-anchor="middle" x="1489.3349" y="-1670.3" font-family="Times,serif" font-size="14.00" fill="#000000">in</text>
</g>
<!-- in&#45;&gt;x5 -->
<g id="edge5" class="edge">
<title>in&#45;&gt;x5</title>
<path fill="none" stroke="#000000" d="M1462.2379,-1672.258C1386.6641,-1667.1476 1167.2954,-1650.5951 987.3349,-1620 976.7707,-1618.204 965.4904,-1615.8298 954.9126,-1613.397"/>
<polygon fill="#000000" stroke="#000000" points="955.5694,-1609.9559 945.0326,-1611.0636 953.9603,-1616.7685 955.5694,-1609.9559"/>
</g>
<!-- in&#45;&gt;x18 -->
<g id="edge6" class="edge">
<title>in&#45;&gt;x18</title>
<path fill="none" stroke="#000000" d="M1516.1903,-1670.9063C1611.3947,-1659.9387 1933.8987,-1622.7862 2061.6209,-1608.0726"/>
<polygon fill="#000000" stroke="#000000" points="2062.0269,-1611.5491 2071.5606,-1606.9276 2061.2257,-1604.5951 2062.0269,-1611.5491"/>
</g>
<!-- x10 -->
<g id="node51" class="node">
<title>x10</title>
<ellipse fill="none" stroke="#000000" cx="1597.3349" cy="-1602" rx="27" ry="18"/>
<text text-anchor="middle" x="1597.3349" y="-1598.3" font-family="Times,serif" font-size="14.00" fill="#000000">x10</text>
</g>
<!-- in&#45;&gt;x10 -->
<g id="edge1" class="edge">
<title>in&#45;&gt;x10</title>
<path fill="none" stroke="#000000" d="M1508.6431,-1661.1278C1525.6903,-1649.763 1550.7368,-1633.0654 1569.8693,-1620.3104"/>
<polygon fill="#000000" stroke="#000000" points="1571.8147,-1623.2199 1578.1938,-1614.7607 1567.9318,-1617.3956 1571.8147,-1623.2199"/>
</g>
<!-- x11 -->
<g id="node52" class="node">
<title>x11</title>
<ellipse fill="none" stroke="#000000" cx="1842.3349" cy="-1602" rx="27" ry="18"/>
<text text-anchor="middle" x="1842.3349" y="-1598.3" font-family="Times,serif" font-size="14.00" fill="#000000">x11</text>
</g>
<!-- in&#45;&gt;x11 -->
<g id="edge2" class="edge">
<title>in&#45;&gt;x11</title>
<path fill="none" stroke="#000000" d="M1515.2918,-1668.7057C1577.5123,-1656.0148 1735.2703,-1623.8375 1806.4828,-1609.3126"/>
<polygon fill="#000000" stroke="#000000" points="1807.2411,-1612.7301 1816.3399,-1607.3021 1805.8421,-1605.8713 1807.2411,-1612.7301"/>
</g>
<!-- x9 -->
<g id="node53" class="node">
<title>x9</title>
<ellipse fill="none" stroke="#000000" cx="1023.3349" cy="-1602" rx="27" ry="18"/>
<text text-anchor="middle" x="1023.3349" y="-1598.3" font-family="Times,serif" font-size="14.00" fill="#000000">x9</text>
</g>
<!-- in&#45;&gt;x9 -->
<g id="edge3" class="edge">
<title>in&#45;&gt;x9</title>
<path fill="none" stroke="#000000" d="M1462.9455,-1669.9227C1384.1408,-1657.7468 1150.3984,-1621.6321 1059.7934,-1607.6331"/>
<polygon fill="#000000" stroke="#000000" points="1060.1401,-1604.1452 1049.7229,-1606.0771 1059.0712,-1611.0631 1060.1401,-1604.1452"/>
</g>
<!-- x7 -->
<g id="node54" class="node">
<title>x7</title>
<ellipse fill="none" stroke="#000000" cx="1453.3349" cy="-1602" rx="27" ry="18"/>
<text text-anchor="middle" x="1453.3349" y="-1598.3" font-family="Times,serif" font-size="14.00" fill="#000000">x7</text>
</g>
<!-- in&#45;&gt;x7 -->
<g id="edge4" class="edge">
<title>in&#45;&gt;x7</title>
<path fill="none" stroke="#000000" d="M1480.6203,-1656.5708C1476.3752,-1648.0807 1471.1813,-1637.6929 1466.4686,-1628.2674"/>
<polygon fill="#000000" stroke="#000000" points="1469.5719,-1626.6477 1461.9692,-1619.2687 1463.3109,-1629.7782 1469.5719,-1626.6477"/>
</g>
<!-- x19 -->
<g id="node55" class="node">
<title>x19</title>
<ellipse fill="none" stroke="#000000" cx="2321.3349" cy="-1602" rx="27" ry="18"/>
<text text-anchor="middle" x="2321.3349" y="-1598.3" font-family="Times,serif" font-size="14.00" fill="#000000">x19</text>
</g>
<!-- in&#45;&gt;x19 -->
<g id="edge7" class="edge">
<title>in&#45;&gt;x19</title>
<path fill="none" stroke="#000000" d="M1516.4945,-1672.1982C1608.1864,-1666.038 1914.6766,-1644.8188 2167.3349,-1620 2207.5291,-1616.0517 2253.5077,-1610.5485 2284.6836,-1606.6692"/>
<polygon fill="#000000" stroke="#000000" points="2285.1712,-1610.1356 2294.659,-1605.4205 2284.3017,-1603.1898 2285.1712,-1610.1356"/>
</g>
<!-- x17 -->
<g id="node56" class="node">
<title>x17</title>
<ellipse fill="none" stroke="#000000" cx="189.3349" cy="-1602" rx="27" ry="18"/>
<text text-anchor="middle" x="189.3349" y="-1598.3" font-family="Times,serif" font-size="14.00" fill="#000000">x17</text>
</g>
<!-- in&#45;&gt;x17 -->
<g id="edge8" class="edge">
<title>in&#45;&gt;x17</title>
<path fill="none" stroke="#000000" d="M1462.1825,-1672.4962C1296.139,-1663.2999 418.5227,-1614.6935 226.485,-1604.0575"/>
<polygon fill="#000000" stroke="#000000" points="226.5161,-1600.554 216.3378,-1603.4955 226.1289,-1607.5433 226.5161,-1600.554"/>
</g>
<!-- x15 -->
<g id="node57" class="node">
<title>x15</title>
<ellipse fill="none" stroke="#000000" cx="1525.3349" cy="-1602" rx="27" ry="18"/>
<text text-anchor="middle" x="1525.3349" y="-1598.3" font-family="Times,serif" font-size="14.00" fill="#000000">x15</text>
</g>
<!-- in&#45;&gt;x15 -->
<g id="edge9" class="edge">
<title>in&#45;&gt;x15</title>
<path fill="none" stroke="#000000" d="M1498.0495,-1656.5708C1502.2945,-1648.0807 1507.4884,-1637.6929 1512.2012,-1628.2674"/>
<polygon fill="#000000" stroke="#000000" points="1515.3588,-1629.7782 1516.7005,-1619.2687 1509.0978,-1626.6477 1515.3588,-1629.7782"/>
</g>
<!-- x13 -->
<g id="node58" class="node">
<title>x13</title>
<ellipse fill="none" stroke="#000000" cx="1231.3349" cy="-1602" rx="27" ry="18"/>
<text text-anchor="middle" x="1231.3349" y="-1598.3" font-family="Times,serif" font-size="14.00" fill="#000000">x13</text>
</g>
<!-- in&#45;&gt;x13 -->
<g id="edge10" class="edge">
<title>in&#45;&gt;x13</title>
<path fill="none" stroke="#000000" d="M1464.127,-1666.9652C1417.7672,-1654.0276 1318.906,-1626.4385 1266.1685,-1611.721"/>
<polygon fill="#000000" stroke="#000000" points="1266.838,-1608.2742 1256.2652,-1608.9573 1264.9564,-1615.0166 1266.838,-1608.2742"/>
</g>
<!-- x37_128 -->
<g id="node66" class="node">
<title>x37_128</title>
<ellipse fill="none" stroke="#000000" cx="1366.3349" cy="-1530" rx="42.4939" ry="18"/>
<text text-anchor="middle" x="1366.3349" y="-1526.3" font-family="Times,serif" font-size="14.00" fill="#000000">x37_128</text>
</g>
<!-- x10&#45;&gt;x37_128 -->
<g id="edge50" class="edge">
<title>x10&#45;&gt;x37_128</title>
<path fill="none" stroke="#000000" d="M1576.3568,-1590.5501C1571.512,-1588.1775 1566.3157,-1585.8425 1561.3349,-1584 1499.4629,-1561.1121 1480.5095,-1566.9991 1417.3349,-1548 1414.2327,-1547.0671 1411.0405,-1546.0587 1407.8388,-1545.0121"/>
<polygon fill="#000000" stroke="#000000" points="1408.8797,-1541.6696 1398.2856,-1541.7952 1406.6458,-1548.3036 1408.8797,-1541.6696"/>
</g>
<!-- x45 -->
<g id="node70" class="node">
<title>x45</title>
<ellipse fill="none" stroke="#000000" cx="1928.3349" cy="-1530" rx="27" ry="18"/>
<text text-anchor="middle" x="1928.3349" y="-1526.3" font-family="Times,serif" font-size="14.00" fill="#000000">x45</text>
</g>
<!-- x10&#45;&gt;x45 -->
<g id="edge66" class="edge">
<title>x10&#45;&gt;x45</title>
<path fill="none" stroke="#000000" d="M1624.2179,-1599.0865C1676.0151,-1593.0173 1792.8768,-1577.1049 1887.3349,-1548 1890.5294,-1547.0157 1893.8075,-1545.8542 1897.051,-1544.6028"/>
<polygon fill="#000000" stroke="#000000" points="1898.6588,-1547.7254 1906.5595,-1540.6663 1895.9811,-1541.2577 1898.6588,-1547.7254"/>
</g>
<!-- x30_128 -->
<g id="node63" class="node">
<title>x30_128</title>
<ellipse fill="none" stroke="#000000" cx="1642.3349" cy="-1530" rx="42.4939" ry="18"/>
<text text-anchor="middle" x="1642.3349" y="-1526.3" font-family="Times,serif" font-size="14.00" fill="#000000">x30_128</text>
</g>
<!-- x11&#45;&gt;x30_128 -->
<g id="edge36" class="edge">
<title>x11&#45;&gt;x30_128</title>
<path fill="none" stroke="#000000" d="M1818.2102,-1593.3151C1785.0969,-1581.3943 1725.0567,-1559.7799 1684.4453,-1545.1597"/>
<polygon fill="#000000" stroke="#000000" points="1685.4164,-1541.7895 1674.822,-1541.6954 1683.0453,-1548.3757 1685.4164,-1541.7895"/>
</g>
<!-- x39_128 -->
<g id="node67" class="node">
<title>x39_128</title>
<ellipse fill="none" stroke="#000000" cx="2015.3349" cy="-1530" rx="42.4939" ry="18"/>
<text text-anchor="middle" x="2015.3349" y="-1526.3" font-family="Times,serif" font-size="14.00" fill="#000000">x39_128</text>
</g>
<!-- x11&#45;&gt;x39_128 -->
<g id="edge54" class="edge">
<title>x11&#45;&gt;x39_128</title>
<path fill="none" stroke="#000000" d="M1865.3079,-1592.439C1893.4527,-1580.7255 1941.5949,-1560.6895 1975.748,-1546.4755"/>
<polygon fill="#000000" stroke="#000000" points="1977.0942,-1549.7063 1984.9817,-1542.6325 1974.4045,-1543.2436 1977.0942,-1549.7063"/>
</g>
<!-- x48 -->
<g id="node73" class="node">
<title>x48</title>
<ellipse fill="none" stroke="#000000" cx="2318.3349" cy="-1530" rx="27" ry="18"/>
<text text-anchor="middle" x="2318.3349" y="-1526.3" font-family="Times,serif" font-size="14.00" fill="#000000">x48</text>
</g>
<!-- x11&#45;&gt;x48 -->
<g id="edge69" class="edge">
<title>x11&#45;&gt;x48</title>
<path fill="none" stroke="#000000" d="M1869.3488,-1599.8974C1952.5555,-1593.2309 2204.0449,-1571.6087 2282.3349,-1548 2284.2416,-1547.425 2286.1699,-1546.755 2288.0914,-1546.0182"/>
<polygon fill="#000000" stroke="#000000" points="2289.7447,-1549.1156 2297.5107,-1541.9086 2286.9454,-1542.6996 2289.7447,-1549.1156"/>
</g>
<!-- x25_128 -->
<g id="node61" class="node">
<title>x25_128</title>
<ellipse fill="none" stroke="#000000" cx="537.3349" cy="-1530" rx="42.4939" ry="18"/>
<text text-anchor="middle" x="537.3349" y="-1526.3" font-family="Times,serif" font-size="14.00" fill="#000000">x25_128</text>
</g>
<!-- x9&#45;&gt;x25_128 -->
<g id="edge27" class="edge">
<title>x9&#45;&gt;x25_128</title>
<path fill="none" stroke="#000000" d="M998.9591,-1594.045C987.1165,-1590.4638 972.6077,-1586.4901 959.3349,-1584 796.5121,-1553.4536 750.0768,-1583.8312 588.3349,-1548 584.9315,-1547.2461 581.4427,-1546.3322 577.9649,-1545.3207"/>
<polygon fill="#000000" stroke="#000000" points="578.862,-1541.9338 568.2722,-1542.2633 576.7561,-1548.6095 578.862,-1541.9338"/>
</g>
<!-- x34_128 -->
<g id="node65" class="node">
<title>x34_128</title>
<ellipse fill="none" stroke="#000000" cx="1023.3349" cy="-1530" rx="42.4939" ry="18"/>
<text text-anchor="middle" x="1023.3349" y="-1526.3" font-family="Times,serif" font-size="14.00" fill="#000000">x34_128</text>
</g>
<!-- x9&#45;&gt;x34_128 -->
<g id="edge45" class="edge">
<title>x9&#45;&gt;x34_128</title>
<path fill="none" stroke="#000000" d="M1023.3349,-1583.8314C1023.3349,-1576.131 1023.3349,-1566.9743 1023.3349,-1558.4166"/>
<polygon fill="#000000" stroke="#000000" points="1026.835,-1558.4132 1023.3349,-1548.4133 1019.835,-1558.4133 1026.835,-1558.4132"/>
</g>
<!-- x43_128 -->
<g id="node69" class="node">
<title>x43_128</title>
<ellipse fill="none" stroke="#000000" cx="255.3349" cy="-1530" rx="42.4939" ry="18"/>
<text text-anchor="middle" x="255.3349" y="-1526.3" font-family="Times,serif" font-size="14.00" fill="#000000">x43_128</text>
</g>
<!-- x9&#45;&gt;x43_128 -->
<g id="edge63" class="edge">
<title>x9&#45;&gt;x43_128</title>
<path fill="none" stroke="#000000" d="M999.0024,-1593.8C987.1697,-1590.1631 972.6567,-1586.2131 959.3349,-1584 672.6015,-1536.3666 591.3654,-1604.9433 306.3349,-1548 302.9166,-1547.3171 299.4172,-1546.4537 295.932,-1545.4765"/>
<polygon fill="#000000" stroke="#000000" points="296.8149,-1542.0861 286.2273,-1542.4768 294.7477,-1548.7739 296.8149,-1542.0861"/>
</g>
<!-- x47 -->
<g id="node72" class="node">
<title>x47</title>
<ellipse fill="none" stroke="#000000" cx="1279.3349" cy="-1530" rx="27" ry="18"/>
<text text-anchor="middle" x="1279.3349" y="-1526.3" font-family="Times,serif" font-size="14.00" fill="#000000">x47</text>
</g>
<!-- x9&#45;&gt;x47 -->
<g id="edge68" class="edge">
<title>x9&#45;&gt;x47</title>
<path fill="none" stroke="#000000" d="M1049.6347,-1597.5116C1091.4761,-1589.937 1175.4123,-1572.961 1243.3349,-1548 1245.2041,-1547.3131 1247.1034,-1546.556 1249.0028,-1545.7529"/>
<polygon fill="#000000" stroke="#000000" points="1250.7285,-1548.8122 1258.3627,-1541.4658 1247.8134,-1542.448 1250.7285,-1548.8122"/>
</g>
<!-- x22_128 -->
<g id="node60" class="node">
<title>x22_128</title>
<ellipse fill="none" stroke="#000000" cx="741.3349" cy="-1530" rx="42.4939" ry="18"/>
<text text-anchor="middle" x="741.3349" y="-1526.3" font-family="Times,serif" font-size="14.00" fill="#000000">x22_128</text>
</g>
<!-- x7&#45;&gt;x22_128 -->
<g id="edge21" class="edge">
<title>x7&#45;&gt;x22_128</title>
<path fill="none" stroke="#000000" d="M1426.5534,-1599.2315C1390.4254,-1595.5373 1324.0608,-1588.8939 1267.3349,-1584 1056.4018,-1565.8023 999.5113,-1591.6101 792.3349,-1548 788.9238,-1547.282 785.4295,-1546.3937 781.9478,-1545.3995"/>
<polygon fill="#000000" stroke="#000000" points="782.8376,-1542.0108 772.2489,-1542.3713 780.7513,-1548.6927 782.8376,-1542.0108"/>
</g>
<!-- x27_128 -->
<g id="node62" class="node">
<title>x27_128</title>
<ellipse fill="none" stroke="#000000" cx="1540.3349" cy="-1530" rx="42.4939" ry="18"/>
<text text-anchor="middle" x="1540.3349" y="-1526.3" font-family="Times,serif" font-size="14.00" fill="#000000">x27_128</text>
</g>
<!-- x7&#45;&gt;x27_128 -->
<g id="edge31" class="edge">
<title>x7&#45;&gt;x27_128</title>
<path fill="none" stroke="#000000" d="M1470.5233,-1587.7751C1482.6109,-1577.7716 1499.0403,-1564.1748 1512.9243,-1552.6846"/>
<polygon fill="#000000" stroke="#000000" points="1515.2803,-1555.278 1520.7528,-1546.2059 1510.8173,-1549.8852 1515.2803,-1555.278"/>
</g>
<!-- x32_128 -->
<g id="node64" class="node">
<title>x32_128</title>
<ellipse fill="none" stroke="#000000" cx="639.3349" cy="-1530" rx="42.4939" ry="18"/>
<text text-anchor="middle" x="639.3349" y="-1526.3" font-family="Times,serif" font-size="14.00" fill="#000000">x32_128</text>
</g>
<!-- x7&#45;&gt;x32_128 -->
<g id="edge41" class="edge">
<title>x7&#45;&gt;x32_128</title>
<path fill="none" stroke="#000000" d="M1426.5627,-1599.1193C1390.4451,-1595.2994 1324.0921,-1588.5156 1267.3349,-1584 1011.2011,-1563.6221 942.1152,-1599.2486 690.3349,-1548 686.9191,-1547.3047 683.4214,-1546.4326 679.9375,-1545.4494"/>
<polygon fill="#000000" stroke="#000000" points="680.8228,-1542.0596 670.2348,-1542.4397 678.7488,-1548.7453 680.8228,-1542.0596"/>
</g>
<!-- x41_128 -->
<g id="node68" class="node">
<title>x41_128</title>
<ellipse fill="none" stroke="#000000" cx="2231.3349" cy="-1530" rx="42.4939" ry="18"/>
<text text-anchor="middle" x="2231.3349" y="-1526.3" font-family="Times,serif" font-size="14.00" fill="#000000">x41_128</text>
</g>
<!-- x7&#45;&gt;x41_128 -->
<g id="edge59" class="edge">
<title>x7&#45;&gt;x41_128</title>
<path fill="none" stroke="#000000" d="M1473.7119,-1590.0498C1478.6739,-1587.6414 1484.0718,-1585.4169 1489.3349,-1584 1737.4442,-1517.2055 1810.3301,-1569.9383 2066.3349,-1548 2104.6769,-1544.7143 2147.918,-1539.9582 2180.5124,-1536.16"/>
<polygon fill="#000000" stroke="#000000" points="2181.1777,-1539.606 2190.7012,-1534.9636 2180.3613,-1532.6538 2181.1777,-1539.606"/>
</g>
<!-- x46 -->
<g id="node71" class="node">
<title>x46</title>
<ellipse fill="none" stroke="#000000" cx="1453.3349" cy="-1530" rx="27" ry="18"/>
<text text-anchor="middle" x="1453.3349" y="-1526.3" font-family="Times,serif" font-size="14.00" fill="#000000">x46</text>
</g>
<!-- x7&#45;&gt;x46 -->
<g id="edge67" class="edge">
<title>x7&#45;&gt;x46</title>
<path fill="none" stroke="#000000" d="M1453.3349,-1583.8314C1453.3349,-1576.131 1453.3349,-1566.9743 1453.3349,-1558.4166"/>
<polygon fill="#000000" stroke="#000000" points="1456.835,-1558.4132 1453.3349,-1548.4133 1449.835,-1558.4133 1456.835,-1558.4132"/>
</g>
<!-- x19&#45;&gt;x29_128 -->
<g id="edge34" class="edge">
<title>x19&#45;&gt;x29_128</title>
<path fill="none" stroke="#000000" d="M2294.6952,-1598.8924C2227.2659,-1590.9734 2044.381,-1569.1624 1892.3349,-1548 1877.0973,-1545.8792 1860.774,-1543.4747 1845.276,-1541.1294"/>
<polygon fill="#000000" stroke="#000000" points="1845.6434,-1537.6451 1835.2306,-1539.6003 1844.59,-1544.5653 1845.6434,-1537.6451"/>
</g>
<!-- x19&#45;&gt;x41_128 -->
<g id="edge58" class="edge">
<title>x19&#45;&gt;x41_128</title>
<path fill="none" stroke="#000000" d="M2303.982,-1588.1177C2291.4283,-1578.0747 2274.1877,-1564.2823 2259.6523,-1552.654"/>
<polygon fill="#000000" stroke="#000000" points="2261.4577,-1549.6161 2251.4626,-1546.1022 2257.0848,-1555.0822 2261.4577,-1549.6161"/>
</g>
<!-- x53_128 -->
<g id="node76" class="node">
<title>x53_128</title>
<ellipse fill="none" stroke="#000000" cx="2029.3349" cy="-1458" rx="42.4939" ry="18"/>
<text text-anchor="middle" x="2029.3349" y="-1454.3" font-family="Times,serif" font-size="14.00" fill="#000000">x53_128</text>
</g>
<!-- x19&#45;&gt;x53_128 -->
<g id="edge78" class="edge">
<title>x19&#45;&gt;x53_128</title>
<path fill="none" stroke="#000000" d="M2335.4795,-1586.5782C2351.5757,-1567.1359 2373.321,-1533.6438 2354.3349,-1512 2313.837,-1465.8332 2140.0596,-1490.2973 2080.3349,-1476 2076.9919,-1475.1997 2073.5621,-1474.2602 2070.1386,-1473.2377"/>
<polygon fill="#000000" stroke="#000000" points="2071.1757,-1469.8948 2060.5847,-1470.1828 2069.0436,-1476.5622 2071.1757,-1469.8948"/>
</g>
<!-- x61_128 -->
<g id="node80" class="node">
<title>x61_128</title>
<ellipse fill="none" stroke="#000000" cx="2475.3349" cy="-1458" rx="42.4939" ry="18"/>
<text text-anchor="middle" x="2475.3349" y="-1454.3" font-family="Times,serif" font-size="14.00" fill="#000000">x61_128</text>
</g>
<!-- x19&#45;&gt;x61_128 -->
<g id="edge94" class="edge">
<title>x19&#45;&gt;x61_128</title>
<path fill="none" stroke="#000000" d="M2347.2563,-1596.7108C2374.427,-1589.8911 2416.6633,-1575.488 2442.3349,-1548 2458.3184,-1530.8856 2466.701,-1505.3945 2471.0096,-1485.9059"/>
<polygon fill="#000000" stroke="#000000" points="2474.4494,-1486.5527 2472.9583,-1476.0633 2467.5827,-1485.1931 2474.4494,-1486.5527"/>
</g>
<!-- x63_128 -->
<g id="node81" class="node">
<title>x63_128</title>
<ellipse fill="none" stroke="#000000" cx="2271.3349" cy="-1458" rx="42.4939" ry="18"/>
<text text-anchor="middle" x="2271.3349" y="-1454.3" font-family="Times,serif" font-size="14.00" fill="#000000">x63_128</text>
</g>
<!-- x19&#45;&gt;x63_128 -->
<g id="edge98" class="edge">
<title>x19&#45;&gt;x63_128</title>
<path fill="none" stroke="#000000" d="M2347.5796,-1596.524C2372.4882,-1589.781 2408.5393,-1575.6455 2425.3349,-1548 2433.6424,-1534.3258 2434.5959,-1525.0473 2425.3349,-1512 2397.2661,-1472.4557 2368.0882,-1492.0698 2322.3349,-1476 2319.4599,-1474.9902 2316.4942,-1473.9472 2313.507,-1472.8956"/>
<polygon fill="#000000" stroke="#000000" points="2314.5727,-1469.5602 2303.9778,-1469.5377 2312.2462,-1476.1623 2314.5727,-1469.5602"/>
</g>
<!-- x17&#45;&gt;x24_128 -->
<g id="edge24" class="edge">
<title>x17&#45;&gt;x24_128</title>
<path fill="none" stroke="#000000" d="M175.0138,-1586.3771C166.6755,-1577.2807 155.9647,-1565.5962 146.4584,-1555.2257"/>
<polygon fill="#000000" stroke="#000000" points="148.8202,-1552.6226 139.4829,-1547.6161 143.6601,-1557.3527 148.8202,-1552.6226"/>
</g>
<!-- x17&#45;&gt;x32_128 -->
<g id="edge40" class="edge">
<title>x17&#45;&gt;x32_128</title>
<path fill="none" stroke="#000000" d="M216.301,-1600.2633C281.1664,-1595.6738 450.7364,-1581.2219 588.3349,-1548 591.6763,-1547.1932 595.105,-1546.2491 598.5277,-1545.2234"/>
<polygon fill="#000000" stroke="#000000" points="599.6249,-1548.5472 608.0802,-1542.1631 597.4892,-1541.881 599.6249,-1548.5472"/>
</g>
<!-- x17&#45;&gt;x43_128 -->
<g id="edge62" class="edge">
<title>x17&#45;&gt;x43_128</title>
<path fill="none" stroke="#000000" d="M203.6559,-1586.3771C212.259,-1576.9918 223.3876,-1564.8515 233.1132,-1554.2418"/>
<polygon fill="#000000" stroke="#000000" points="235.7135,-1556.5847 239.8907,-1546.8481 230.5534,-1551.8546 235.7135,-1556.5847"/>
</g>
<!-- x55_128 -->
<g id="node77" class="node">
<title>x55_128</title>
<ellipse fill="none" stroke="#000000" cx="1178.3349" cy="-1458" rx="42.4939" ry="18"/>
<text text-anchor="middle" x="1178.3349" y="-1454.3" font-family="Times,serif" font-size="14.00" fill="#000000">x55_128</text>
</g>
<!-- x17&#45;&gt;x55_128 -->
<g id="edge82" class="edge">
<title>x17&#45;&gt;x55_128</title>
<path fill="none" stroke="#000000" d="M163.1515,-1596.586C111.0106,-1584.7457 2.5867,-1554.1958 43.3349,-1512 83.1477,-1470.7728 1017.3268,-1481.9008 1074.3349,-1476 1092.6184,-1474.1075 1112.5418,-1470.9344 1130.0126,-1467.7748"/>
<polygon fill="#000000" stroke="#000000" points="1130.7904,-1471.1903 1139.9847,-1465.9258 1129.5142,-1464.3076 1130.7904,-1471.1903"/>
</g>
<!-- x57_128 -->
<g id="node78" class="node">
<title>x57_128</title>
<ellipse fill="none" stroke="#000000" cx="1023.3349" cy="-1458" rx="42.4939" ry="18"/>
<text text-anchor="middle" x="1023.3349" y="-1454.3" font-family="Times,serif" font-size="14.00" fill="#000000">x57_128</text>
</g>
<!-- x17&#45;&gt;x57_128 -->
<g id="edge86" class="edge">
<title>x17&#45;&gt;x57_128</title>
<path fill="none" stroke="#000000" d="M162.7467,-1598.4975C101.9118,-1589.5165 -38.531,-1562.7287 10.3349,-1512 47.4384,-1473.482 919.7988,-1486.0138 972.3349,-1476 975.8066,-1475.3383 979.36,-1474.482 982.896,-1473.5027"/>
<polygon fill="#000000" stroke="#000000" points="984.204,-1476.7622 992.7327,-1470.4764 982.1456,-1470.0717 984.204,-1476.7622"/>
</g>
<!-- x15&#45;&gt;x21_128 -->
<g id="edge18" class="edge">
<title>x15&#45;&gt;x21_128</title>
<path fill="none" stroke="#000000" d="M1504.9504,-1590.0773C1499.9887,-1587.6677 1494.5928,-1585.4358 1489.3349,-1584 1267.1369,-1523.3213 1200.6208,-1578.6487 972.3349,-1548 965.1689,-1547.0379 957.7158,-1545.8514 950.3024,-1544.5502"/>
<polygon fill="#000000" stroke="#000000" points="950.7145,-1541.0677 940.2486,-1542.7152 949.4575,-1547.9539 950.7145,-1541.0677"/>
</g>
<!-- x15&#45;&gt;x27_128 -->
<g id="edge30" class="edge">
<title>x15&#45;&gt;x27_128</title>
<path fill="none" stroke="#000000" d="M1529.12,-1583.8314C1530.7242,-1576.131 1532.6319,-1566.9743 1534.4147,-1558.4166"/>
<polygon fill="#000000" stroke="#000000" points="1537.8856,-1558.9169 1536.4988,-1548.4133 1531.0327,-1557.4892 1537.8856,-1558.9169"/>
</g>
<!-- x15&#45;&gt;x34_128 -->
<g id="edge44" class="edge">
<title>x15&#45;&gt;x34_128</title>
<path fill="none" stroke="#000000" d="M1504.9321,-1590.1429C1499.9712,-1587.7306 1494.5802,-1585.4811 1489.3349,-1584 1311.5901,-1533.8125 1255.972,-1586.4998 1075.3349,-1548 1071.7113,-1547.2277 1067.9923,-1546.2763 1064.2899,-1545.2178"/>
<polygon fill="#000000" stroke="#000000" points="1065.1931,-1541.8335 1054.6051,-1542.2152 1063.1201,-1548.5196 1065.1931,-1541.8335"/>
</g>
<!-- x15&#45;&gt;x39_128 -->
<g id="edge55" class="edge">
<title>x15&#45;&gt;x39_128</title>
<path fill="none" stroke="#000000" d="M1545.7401,-1590.1518C1550.701,-1587.7392 1556.0913,-1585.4872 1561.3349,-1584 1734.3352,-1534.9321 1788.6198,-1586.2233 1964.3349,-1548 1967.741,-1547.2591 1971.2319,-1546.3545 1974.7111,-1545.3493"/>
<polygon fill="#000000" stroke="#000000" points="1975.9155,-1548.6396 1984.4061,-1542.3024 1973.8167,-1541.9616 1975.9155,-1548.6396"/>
</g>
<!-- x49_128 -->
<g id="node74" class="node">
<title>x49_128</title>
<ellipse fill="none" stroke="#000000" cx="1685.3349" cy="-1458" rx="42.4939" ry="18"/>
<text text-anchor="middle" x="1685.3349" y="-1454.3" font-family="Times,serif" font-size="14.00" fill="#000000">x49_128</text>
</g>
<!-- x15&#45;&gt;x49_128 -->
<g id="edge70" class="edge">
<title>x15&#45;&gt;x49_128</title>
<path fill="none" stroke="#000000" d="M1546.1592,-1590.0919C1551.0121,-1587.7431 1556.2505,-1585.5336 1561.3349,-1584 1624.1407,-1565.0559 1810.8685,-1597.1338 1854.3349,-1548 1864.9363,-1536.0163 1863.8558,-1524.8589 1854.3349,-1512 1821.7072,-1467.9335 1788.4217,-1493.1284 1736.3349,-1476 1733.397,-1475.0339 1730.3708,-1474.0184 1727.3278,-1472.9823"/>
<polygon fill="#000000" stroke="#000000" points="1728.2329,-1469.5921 1717.6382,-1469.6376 1725.9489,-1476.209 1728.2329,-1469.5921"/>
</g>
<!-- x13&#45;&gt;x20_128 -->
<g id="edge16" class="edge">
<title>x13&#45;&gt;x20_128</title>
<path fill="none" stroke="#000000" d="M1204.554,-1598.8491C1170.7501,-1594.9523 1110.7965,-1588.3075 1059.3349,-1584 805.0553,-1562.7161 739.3482,-1581.0963 486.3349,-1548 479.1657,-1547.0622 471.7105,-1545.8914 464.2958,-1544.5996"/>
<polygon fill="#000000" stroke="#000000" points="464.7053,-1541.1167 454.2408,-1542.7735 463.4545,-1548.0041 464.7053,-1541.1167"/>
</g>
<!-- x13&#45;&gt;x22_128 -->
<g id="edge20" class="edge">
<title>x13&#45;&gt;x22_128</title>
<path fill="none" stroke="#000000" d="M1204.5635,-1599.0495C1115.505,-1589.1868 832.5612,-1557.4545 792.3349,-1548 788.9886,-1547.2135 785.5565,-1546.2839 782.1314,-1545.2681"/>
<polygon fill="#000000" stroke="#000000" points="783.1654,-1541.9242 772.5748,-1542.2247 781.0412,-1548.5942 783.1654,-1541.9242"/>
</g>
<!-- x13&#45;&gt;x25_128 -->
<g id="edge26" class="edge">
<title>x13&#45;&gt;x25_128</title>
<path fill="none" stroke="#000000" d="M1204.5442,-1598.9616C1170.7302,-1595.1808 1110.7662,-1588.6558 1059.3349,-1584 850.2459,-1565.0724 793.7628,-1591.3107 588.3349,-1548 584.924,-1547.2809 581.4299,-1546.3918 577.9483,-1545.3971"/>
<polygon fill="#000000" stroke="#000000" points="578.8383,-1542.0084 568.2496,-1542.368 576.7514,-1548.6901 578.8383,-1542.0084"/>
</g>
<!-- x13&#45;&gt;x30_128 -->
<g id="edge37" class="edge">
<title>x13&#45;&gt;x30_128</title>
<path fill="none" stroke="#000000" d="M1258.323,-1599.7228C1318.7017,-1594.2445 1468.9899,-1578.4709 1591.3349,-1548 1594.5238,-1547.2058 1597.794,-1546.2923 1601.0637,-1545.3069"/>
<polygon fill="#000000" stroke="#000000" points="1602.3389,-1548.5735 1610.7894,-1542.183 1600.1981,-1541.9089 1602.3389,-1548.5735"/>
</g>
<!-- x13&#45;&gt;x37_128 -->
<g id="edge51" class="edge">
<title>x13&#45;&gt;x37_128</title>
<path fill="none" stroke="#000000" d="M1252.4286,-1590.75C1273.3394,-1579.5976 1305.7664,-1562.3032 1330.6824,-1549.0146"/>
<polygon fill="#000000" stroke="#000000" points="1332.6478,-1551.9331 1339.8243,-1544.139 1329.3537,-1545.7567 1332.6478,-1551.9331"/>
</g>
<!-- x22_128&#45;&gt;x23_128 -->
<g id="edge23" class="edge">
<title>x22_128&#45;&gt;x23_128</title>
<path fill="none" stroke="#000000" d="M768.5211,-1516.1177C789.0088,-1505.6559 817.4645,-1491.1253 840.7971,-1479.2108"/>
<polygon fill="#000000" stroke="#000000" points="842.4731,-1482.2849 849.7874,-1474.62 839.2896,-1476.0507 842.4731,-1482.2849"/>
</g>
<!-- x25_128&#45;&gt;x26_128 -->
<g id="edge29" class="edge">
<title>x25_128&#45;&gt;x26_128</title>
<path fill="none" stroke="#000000" d="M537.3349,-1511.8314C537.3349,-1504.131 537.3349,-1494.9743 537.3349,-1486.4166"/>
<polygon fill="#000000" stroke="#000000" points="540.835,-1486.4132 537.3349,-1476.4133 533.835,-1486.4133 540.835,-1486.4132"/>
</g>
<!-- x27_128&#45;&gt;x28_128 -->
<g id="edge33" class="edge">
<title>x27_128&#45;&gt;x28_128</title>
<path fill="none" stroke="#000000" d="M1519.7569,-1514.1091C1506.321,-1503.5651 1488.5193,-1489.2741 1473.3349,-1476 1455.8196,-1460.6882 1455.8635,-1450.9457 1435.3349,-1440 1434.3387,-1439.4688 1329.8431,-1416.0561 1259.0801,-1400.2367"/>
<polygon fill="#000000" stroke="#000000" points="1259.4234,-1396.7272 1248.9007,-1397.9615 1257.8964,-1403.5586 1259.4234,-1396.7272"/>
</g>
<!-- x30_128&#45;&gt;x31_128 -->
<g id="edge39" class="edge">
<title>x30_128&#45;&gt;x31_128</title>
<path fill="none" stroke="#000000" d="M1622.5829,-1514.0209C1610.7931,-1504.4831 1595.6051,-1492.1962 1582.4586,-1481.5607"/>
<polygon fill="#000000" stroke="#000000" points="1584.5613,-1478.7599 1574.5854,-1475.1915 1580.1586,-1484.202 1584.5613,-1478.7599"/>
</g>
<!-- x32_128&#45;&gt;x33_128 -->
<g id="edge43" class="edge">
<title>x32_128&#45;&gt;x33_128</title>
<path fill="none" stroke="#000000" d="M659.6547,-1513.8683C687.6643,-1492.656 740.5682,-1456.1871 792.3349,-1440 997.787,-1375.7566 1062.3797,-1435.4302 1275.3349,-1404 1281.6009,-1403.0752 1288.104,-1401.9371 1294.5778,-1400.6862"/>
<polygon fill="#000000" stroke="#000000" points="1295.5804,-1404.0544 1304.6885,-1398.6422 1294.1933,-1397.1932 1295.5804,-1404.0544"/>
</g>
<!-- x34_128&#45;&gt;x35_128 -->
<g id="edge47" class="edge">
<title>x34_128&#45;&gt;x35_128</title>
<path fill="none" stroke="#000000" d="M1055.6233,-1518.2429C1062.1117,-1516.0448 1068.9106,-1513.8574 1075.3349,-1512 1142.8591,-1492.4776 1167.4491,-1509.3286 1229.3349,-1476 1249.8178,-1464.9689 1246.744,-1450.8282 1267.3349,-1440 1335.3058,-1404.2561 1388.0185,-1463.6926 1436.3349,-1404 1446.4012,-1391.5634 1443.8027,-1382.1503 1436.3349,-1368 1428.9564,-1354.019 1416.1482,-1342.9708 1402.9662,-1334.6067"/>
<polygon fill="#000000" stroke="#000000" points="1404.6941,-1331.5624 1394.3031,-1329.494 1401.1363,-1337.5908 1404.6941,-1331.5624"/>
</g>
<!-- x37_128&#45;&gt;x38_128 -->
<g id="edge53" class="edge">
<title>x37_128&#45;&gt;x38_128</title>
<path fill="none" stroke="#000000" d="M1362.5497,-1511.8314C1360.9455,-1504.131 1359.0379,-1494.9743 1357.255,-1486.4166"/>
<polygon fill="#000000" stroke="#000000" points="1360.637,-1485.4892 1355.171,-1476.4133 1353.7841,-1486.9169 1360.637,-1485.4892"/>
</g>
<!-- x39_128&#45;&gt;x40_128 -->
<g id="edge57" class="edge">
<title>x39_128&#45;&gt;x40_128</title>
<path fill="none" stroke="#000000" d="M2002.9928,-1512.7164C1995.6298,-1502.229 1986.2116,-1488.4991 1978.3349,-1476 1965.2263,-1455.1988 1951.3414,-1431.0457 1941.2198,-1413.0008"/>
<polygon fill="#000000" stroke="#000000" points="1944.2225,-1411.199 1936.2939,-1404.1714 1938.1095,-1414.6095 1944.2225,-1411.199"/>
</g>
<!-- x41_128&#45;&gt;x42_128 -->
<g id="edge61" class="edge">
<title>x41_128&#45;&gt;x42_128</title>
<path fill="none" stroke="#000000" d="M2225.3254,-1512.0323C2217.9203,-1492.22 2203.6431,-1460.4482 2182.3349,-1440 2125.6906,-1385.6422 2041.0665,-1350.2973 1984.8155,-1331.2574"/>
<polygon fill="#000000" stroke="#000000" points="1985.5958,-1327.8288 1975.0024,-1328.0037 1983.3927,-1334.4731 1985.5958,-1327.8288"/>
</g>
<!-- x43_128&#45;&gt;x44_128 -->
<g id="edge65" class="edge">
<title>x43_128&#45;&gt;x44_128</title>
<path fill="none" stroke="#000000" d="M282.8764,-1516.0729C321.2461,-1497.0558 393.2957,-1462.7353 457.3349,-1440 698.8722,-1354.2489 996.2952,-1284.7834 1126.2906,-1256.1457"/>
<polygon fill="#000000" stroke="#000000" points="1127.0888,-1259.5539 1136.1057,-1253.991 1125.5878,-1252.7167 1127.0888,-1259.5539"/>
</g>
<!-- x45&#45;&gt;x49_128 -->
<g id="edge71" class="edge">
<title>x45&#45;&gt;x49_128</title>
<path fill="none" stroke="#000000" d="M1906.0644,-1519.3564C1900.0677,-1516.7304 1893.5254,-1514.0781 1887.3349,-1512 1821.9296,-1490.0444 1802.5114,-1495.508 1736.3349,-1476 1733.2277,-1475.084 1730.0318,-1474.0881 1726.8274,-1473.0502"/>
<polygon fill="#000000" stroke="#000000" points="1727.8633,-1469.7062 1717.2695,-1469.8495 1725.6405,-1476.3439 1727.8633,-1469.7062"/>
</g>
<!-- x45&#45;&gt;x57_128 -->
<g id="edge87" class="edge">
<title>x45&#45;&gt;x57_128</title>
<path fill="none" stroke="#000000" d="M1903.5601,-1522.7307C1889.2946,-1518.8592 1870.9527,-1514.4104 1854.3349,-1512 1534.1782,-1465.5618 1448.8714,-1511.6519 1127.3349,-1476 1109.0656,-1473.9743 1089.1453,-1470.7724 1071.673,-1467.627"/>
<polygon fill="#000000" stroke="#000000" points="1072.1679,-1464.1594 1061.6995,-1465.7909 1070.9005,-1471.0437 1072.1679,-1464.1594"/>
</g>
<!-- x45&#45;&gt;x63_128 -->
<g id="edge99" class="edge">
<title>x45&#45;&gt;x63_128</title>
<path fill="none" stroke="#000000" d="M1949.2079,-1518.2475C1954.0582,-1515.8906 1959.2833,-1513.6385 1964.3349,-1512 2057.745,-1481.7014 2085.7487,-1493.7362 2182.3349,-1476 2195.6788,-1473.5496 2210.1094,-1470.7125 2223.3879,-1468.0255"/>
<polygon fill="#000000" stroke="#000000" points="2224.181,-1471.4359 2233.2804,-1466.009 2222.7828,-1464.577 2224.181,-1471.4359"/>
</g>
<!-- x45&#45;&gt;x67_128 -->
<g id="edge107" class="edge">
<title>x45&#45;&gt;x67_128</title>
<path fill="none" stroke="#000000" d="M1949.7751,-1518.5674C1954.5052,-1516.2468 1959.5372,-1513.929 1964.3349,-1512 2014.4195,-1491.8628 2029.0958,-1492.9861 2080.3349,-1476 2083.2704,-1475.0268 2086.2948,-1474.0061 2089.3366,-1472.9662"/>
<polygon fill="#000000" stroke="#000000" points="2090.7182,-1476.1919 2099.0238,-1469.6141 2088.429,-1469.5767 2090.7182,-1476.1919"/>
</g>
<!-- x46&#45;&gt;x51_128 -->
<g id="edge75" class="edge">
<title>x46&#45;&gt;x51_128</title>
<path fill="none" stroke="#000000" d="M1473.7551,-1518.2039C1478.7153,-1515.7891 1484.1016,-1513.5231 1489.3349,-1512 1639.0568,-1468.4247 1686.1946,-1510.1878 1838.3349,-1476 1841.6887,-1475.2464 1845.1262,-1474.3402 1848.555,-1473.3405"/>
<polygon fill="#000000" stroke="#000000" points="1849.6337,-1476.6703 1858.1179,-1470.3245 1847.5282,-1469.9944 1849.6337,-1476.6703"/>
</g>
<!-- x47&#45;&gt;x53_128 -->
<g id="edge79" class="edge">
<title>x47&#45;&gt;x53_128</title>
<path fill="none" stroke="#000000" d="M1299.707,-1518.0316C1304.6692,-1515.6239 1310.0685,-1513.4043 1315.3349,-1512 1584.1791,-1440.3112 1664.3923,-1511.668 1940.3349,-1476 1954.0392,-1474.2286 1968.7932,-1471.5599 1982.2713,-1468.8161"/>
<polygon fill="#000000" stroke="#000000" points="1983.2211,-1472.1932 1992.2909,-1466.7169 1981.7857,-1465.3419 1983.2211,-1472.1932"/>
</g>
<!-- x47&#45;&gt;x59_128 -->
<g id="edge91" class="edge">
<title>x47&#45;&gt;x59_128</title>
<path fill="none" stroke="#000000" d="M1299.736,-1518.1374C1304.6971,-1515.7254 1310.0885,-1513.4773 1315.3349,-1512 1496.0992,-1461.1 1552.757,-1515.5695 1736.3349,-1476 1739.7424,-1475.2655 1743.2342,-1474.3655 1746.7142,-1473.3634"/>
<polygon fill="#000000" stroke="#000000" points="1747.9164,-1476.6546 1756.4103,-1470.3218 1745.8211,-1469.9755 1747.9164,-1476.6546"/>
</g>
<!-- x48&#45;&gt;x55_128 -->
<g id="edge83" class="edge">
<title>x48&#45;&gt;x55_128</title>
<path fill="none" stroke="#000000" d="M2297.9847,-1517.9471C2293.0216,-1515.5429 2287.6164,-1513.3461 2282.3349,-1512 2063.6288,-1456.2599 1491.4759,-1502.4594 1267.3349,-1476 1253.6118,-1474.38 1238.8519,-1471.7591 1225.3741,-1469.0125"/>
<polygon fill="#000000" stroke="#000000" points="1225.8626,-1465.5387 1215.3559,-1466.9023 1224.4197,-1472.3884 1225.8626,-1465.5387"/>
</g>
<!-- x48&#45;&gt;x61_128 -->
<g id="edge95" class="edge">
<title>x48&#45;&gt;x61_128</title>
<path fill="none" stroke="#000000" d="M2340.8291,-1519.6842C2365.924,-1508.1757 2406.9521,-1489.3602 2437.107,-1475.5312"/>
<polygon fill="#000000" stroke="#000000" points="2438.8508,-1478.5821 2446.4815,-1471.2321 2435.9328,-1472.2193 2438.8508,-1478.5821"/>
</g>
<!-- x48&#45;&gt;x65_128 -->
<g id="edge103" class="edge">
<title>x48&#45;&gt;x65_128</title>
<path fill="none" stroke="#000000" d="M2330.8152,-1513.6621C2337.6492,-1504.7157 2346.2684,-1493.4325 2353.957,-1483.3674"/>
<polygon fill="#000000" stroke="#000000" points="2356.8479,-1485.3487 2360.1369,-1475.2773 2351.2851,-1481.0993 2356.8479,-1485.3487"/>
</g>
<!-- x49_128&#45;&gt;x50_128 -->
<g id="edge73" class="edge">
<title>x49_128&#45;&gt;x50_128</title>
<path fill="none" stroke="#000000" d="M1683.0638,-1439.8314C1682.1012,-1432.131 1680.9567,-1422.9743 1679.8869,-1414.4166"/>
<polygon fill="#000000" stroke="#000000" points="1683.3499,-1413.9019 1678.6365,-1404.4133 1676.404,-1414.7702 1683.3499,-1413.9019"/>
</g>
<!-- x51_128&#45;&gt;x52_128 -->
<g id="edge77" class="edge">
<title>x51_128&#45;&gt;x52_128</title>
<path fill="none" stroke="#000000" d="M1873.0011,-1441.1995C1848.6347,-1416.137 1802.587,-1368.7736 1774.0754,-1339.4474"/>
<polygon fill="#000000" stroke="#000000" points="1776.3603,-1336.7766 1766.88,-1332.0464 1771.3413,-1341.6562 1776.3603,-1336.7766"/>
</g>
<!-- x53_128&#45;&gt;x54_128 -->
<g id="edge81" class="edge">
<title>x53_128&#45;&gt;x54_128</title>
<path fill="none" stroke="#000000" d="M2033.3894,-1439.863C2039.6612,-1406.5818 2047.4338,-1335.5525 2010.3349,-1296 1979.8895,-1263.5412 1857.0445,-1268.3641 1813.3349,-1260 1806.8155,-1258.7525 1800.0347,-1257.4343 1793.2504,-1256.1016"/>
<polygon fill="#000000" stroke="#000000" points="1793.8263,-1252.6478 1783.3378,-1254.1451 1792.4708,-1259.5153 1793.8263,-1252.6478"/>
</g>
<!-- x55_128&#45;&gt;x56_128 -->
<g id="edge85" class="edge">
<title>x55_128&#45;&gt;x56_128</title>
<path fill="none" stroke="#000000" d="M1216.5813,-1450.2341C1287.8992,-1435.721 1434.2168,-1405.7808 1436.3349,-1404 1475.8799,-1370.7521 1445.2101,-1334.791 1479.3349,-1296 1525.7631,-1243.2231 1599.8642,-1207.989 1650.6935,-1188.5097"/>
<polygon fill="#000000" stroke="#000000" points="1652.0825,-1191.7269 1660.2175,-1184.9392 1649.6253,-1185.1723 1652.0825,-1191.7269"/>
</g>
<!-- x57_128&#45;&gt;x58_128 -->
<g id="edge89" class="edge">
<title>x57_128&#45;&gt;x58_128</title>
<path fill="none" stroke="#000000" d="M1023.3349,-1439.8314C1023.3349,-1432.131 1023.3349,-1422.9743 1023.3349,-1414.4166"/>
<polygon fill="#000000" stroke="#000000" points="1026.835,-1414.4132 1023.3349,-1404.4133 1019.835,-1414.4133 1026.835,-1414.4132"/>
</g>
<!-- x59_128&#45;&gt;x60_128 -->
<g id="edge93" class="edge">
<title>x59_128&#45;&gt;x60_128</title>
<path fill="none" stroke="#000000" d="M1788.2223,-1439.9303C1788.1906,-1419.7235 1784.9152,-1387.3061 1766.3349,-1368 1757.0602,-1358.3631 1690.304,-1341.3315 1637.0346,-1328.9672"/>
<polygon fill="#000000" stroke="#000000" points="1637.7924,-1325.5502 1627.2619,-1326.7157 1636.2208,-1332.3715 1637.7924,-1325.5502"/>
</g>
<!-- x61_128&#45;&gt;x62_128 -->
<g id="edge97" class="edge">
<title>x61_128&#45;&gt;x62_128</title>
<path fill="none" stroke="#000000" d="M2458.8946,-1441.3484C2424.5433,-1407.6692 2341.1982,-1331.6433 2255.3349,-1296 2208.3248,-1276.4853 2076.1707,-1259.7348 1987.8459,-1250.2656"/>
<polygon fill="#000000" stroke="#000000" points="1988.1501,-1246.7783 1977.8366,-1249.2034 1987.4114,-1253.7392 1988.1501,-1246.7783"/>
</g>
<!-- x63_128&#45;&gt;x64_128 -->
<g id="edge101" class="edge">
<title>x63_128&#45;&gt;x64_128</title>
<path fill="none" stroke="#000000" d="M2261.0084,-1440.4802C2250.0693,-1422.1463 2232.0962,-1392.6545 2215.3349,-1368 2208.9722,-1358.6411 2201.6885,-1348.6218 2195.0951,-1339.7861"/>
<polygon fill="#000000" stroke="#000000" points="2197.8477,-1337.623 2189.0378,-1331.7376 2192.2547,-1341.8323 2197.8477,-1337.623"/>
</g>
<!-- x65_128&#45;&gt;x66_128 -->
<g id="edge105" class="edge">
<title>x65_128&#45;&gt;x66_128</title>
<path fill="none" stroke="#000000" d="M2363.3363,-1440.4022C2344.8657,-1408.9055 2302.9109,-1341.9035 2255.3349,-1296 2242.852,-1283.9559 2227.3838,-1272.8228 2213.3855,-1263.8332"/>
<polygon fill="#000000" stroke="#000000" points="2215.2334,-1260.8608 2204.8994,-1258.5239 2211.5206,-1266.795 2215.2334,-1260.8608"/>
</g>
<!-- x67_128&#45;&gt;x68_128 -->
<g id="edge109" class="edge">
<title>x67_128&#45;&gt;x68_128</title>
<path fill="none" stroke="#000000" d="M2124.0812,-1440.1723C2108.8776,-1405.4105 2070.0604,-1329.0865 2010.3349,-1296 1997.917,-1289.1208 1607.6207,-1260.122 1436.4641,-1247.6936"/>
<polygon fill="#000000" stroke="#000000" points="1436.4812,-1244.1857 1426.2541,-1246.953 1435.9747,-1251.1674 1436.4812,-1244.1857"/>
</g>
</g>
</svg>
